<?xml version="1.0" encoding="UTF-8" standalone="no"?>
<!DOCTYPE svg PUBLIC "-//W3C//DTD SVG 1.1//EN" "http://www.w3.org/Graphics/SVG/1.1/DTD/svg11.dtd">
<!-- Created with Vectornator (http://vectornator.io/) -->
<svg height="100%" stroke-miterlimit="10" style="fill-rule:nonzero;clip-rule:evenodd;stroke-linecap:round;stroke-linejoin:round;" version="1.1" viewBox="0 0 1080 1080" width="100%" xml:space="preserve" xmlns="http://www.w3.org/2000/svg" xmlns:xlink="http://www.w3.org/1999/xlink">
<defs/>
<g id="Layer-3">
<g opacity="1">
<path d="M577.346 277.854L579.023 782.039C579.152 821.229 547.488 853.107 508.297 853.236L315.002 853.879C275.811 854.008 243.934 822.345 243.805 783.154L242.129 278.966C242.116 275.027 242.531 271.173 243.321 267.48C248.501 242.999 270.194 224.597 296.225 224.51L522.89 223.757C548.921 223.67 570.735 241.928 576.077 266.375C576.892 270.063 577.334 273.912 577.346 277.854" fill="#ffffff" fill-rule="nonzero" opacity="1" stroke="none"/>
<path d="M502.82 846.519L502.847 854.404L502.82 846.519C539.969 846.398 570.093 816.072 569.969 778.923L568.377 300.017C568.256 262.942 538.055 232.865 501.009 232.865C500.93 232.865 500.858 232.865 500.781 232.865L316.081 233.481C298.084 233.538 281.186 240.603 268.504 253.371C255.821 266.138 248.87 283.08 248.929 301.077L250.521 779.983C250.581 797.981 257.646 814.875 270.413 827.558C283.126 840.186 299.979 847.135 317.887 847.135C317.964 847.135 318.041 847.135 318.117 847.133L502.82 846.519ZM317.887 862.902C295.782 862.902 274.988 854.33 259.3 838.746C243.545 823.093 234.826 802.245 234.754 780.038L233.162 301.129C233.008 255.285 270.182 217.863 316.026 217.711L500.726 217.098L501.009 217.098C546.727 217.098 583.995 254.21 584.147 299.962L585.739 778.871C585.811 801.077 577.233 821.985 561.58 837.74C545.93 853.498 525.081 862.214 502.874 862.289L318.17 862.902L317.887 862.902Z" fill="#051832" fill-rule="nonzero" opacity="1" stroke="none"/>
<path d="M574.924 267.529L242.167 268.634C247.345 244.155 269.038 225.75 295.072 225.666L521.736 224.911C547.768 224.826 569.582 243.082 574.924 267.529" fill="#03152c" fill-rule="nonzero" opacity="1" stroke="none"/>
<path d="M533.964 432.993C533.964 467.15 520.122 498.086 497.721 520.469L410.245 432.993L497.721 345.516C520.122 367.9 533.964 398.836 533.964 432.993" fill="#00b6f2" fill-rule="nonzero" opacity="1" stroke="none"/>
<path d="M389.989 432.993L454.556 497.559C438.036 514.094 415.211 524.311 389.989 524.311C364.765 524.311 341.942 514.094 325.42 497.559C308.888 481.039 298.671 458.204 298.671 432.993C298.671 407.781 308.888 384.946 325.42 368.424C341.942 351.891 364.765 341.675 389.989 341.675C415.211 341.675 438.036 351.891 454.556 368.424L389.989 432.993Z" fill="#ec2961" fill-rule="nonzero" opacity="1" stroke="none"/>
<path d="M533.489 607.816L330.558 607.816C327.67 607.816 325.328 605.474 325.328 602.583C325.328 599.698 327.67 597.353 330.558 597.353L533.489 597.353C536.377 597.353 538.719 599.698 538.719 602.583C538.719 605.474 536.377 607.816 533.489 607.816" fill="#ec2961" fill-rule="nonzero" opacity="1" stroke="none"/>
<path d="M304.468 607.816L284.176 607.816C281.286 607.816 278.944 605.474 278.944 602.583C278.944 599.698 281.286 597.353 284.176 597.353L304.468 597.353C307.357 597.353 309.698 599.698 309.698 602.583C309.698 605.474 307.357 607.816 304.468 607.816" fill="#ec2961" fill-rule="nonzero" opacity="1" stroke="none"/>
<path d="M304.468 659.998L284.176 659.998C281.286 659.998 278.944 657.656 278.944 654.766C278.944 651.88 281.286 649.535 284.176 649.535L304.468 649.535C307.357 649.535 309.698 651.88 309.698 654.766C309.698 657.656 307.357 659.998 304.468 659.998" fill="#ec2961" fill-rule="nonzero" opacity="1" stroke="none"/>
<path d="M304.468 712.18L284.176 712.18C281.286 712.18 278.944 709.839 278.944 706.95C278.944 704.062 281.286 701.718 284.176 701.718L304.468 701.718C307.357 701.718 309.698 704.062 309.698 706.95C309.698 709.839 307.357 712.18 304.468 712.18" fill="#ec2961" fill-rule="nonzero" opacity="1" stroke="none"/>
<path d="M533.489 659.998L330.558 659.998C327.67 659.998 325.328 657.656 325.328 654.766C325.328 651.88 327.67 649.535 330.558 649.535L533.489 649.535C536.377 649.535 538.719 651.88 538.719 654.766C538.719 657.656 536.377 659.998 533.489 659.998" fill="#ec2961" fill-rule="nonzero" opacity="1" stroke="none"/>
<path d="M533.489 712.18L330.558 712.18C327.67 712.18 325.328 709.839 325.328 706.95C325.328 704.062 327.67 701.718 330.558 701.718L533.489 701.718C536.377 701.718 538.719 704.062 538.719 706.95C538.719 709.839 536.377 712.18 533.489 712.18" fill="#ec2961" fill-rule="nonzero" opacity="1" stroke="none"/>
<path d="M675.462 424.934C668.258 439.598 666.376 452.051 665.09 460.694C653.382 539.369 645.099 533.213 648.647 549.561C656.961 587.863 700.367 612.168 767.809 649.933C777.653 655.444 785.917 659.7 791.45 662.476C789.55 649.973 787.433 638.143 785.168 626.981C783.488 618.722 781.724 610.846 779.923 603.394C772.742 573.465 764.717 549.2 757.621 530.442C746.044 499.858 738.647 488.1 731.448 457.007C721.938 416.001 724.402 390.983 713.524 387.828C702.489 384.628 684.746 406.031 675.462 424.934" fill="#ffffff" fill-rule="nonzero" opacity="1" stroke="none"/>
<path d="M478.971 728.517C477.021 743.578 476.931 767.058 493.847 783.762C494.913 784.791 495.973 785.771 497.03 786.701C497.138 786.795 497.251 786.895 497.359 786.94C497.752 787.333 498.19 787.671 498.582 788.014C499.187 788.497 499.796 788.98 500.451 789.355C516.997 801.216 543.722 804.497 621.698 801.437C673.581 796.053 719.275 791.336 767.864 759.601C795.148 741.782 835.648 715.346 840.658 671.005C841.827 647.251 835.571 626.908 828.39 611.612C827.6 609.933 826.815 608.358 826.034 606.841C825.492 605.772 824.896 604.661 824.301 603.596C818.586 593.129 810.403 584.179 800.587 577.436C789.231 569.69 779.378 563.994 771.989 559.973C728.483 536.462 688.949 528.049 625.272 514.977C603.928 510.608 594.689 509.534 588.758 508.613C548.267 502.358 511.482 500.674 495.477 518.751C484.161 531.592 486.906 550.278 491.622 564.689C473.004 571.672 460.199 586.553 458.272 603.551C455.541 627.464 475.83 642.85 477.707 644.299C459.256 652.997 448.098 669.864 448.794 687.737C449.502 704.929 461.052 720.519 478.971 728.517" fill="#ffffff" fill-rule="nonzero" opacity="1" stroke="none"/>
<path d="M574.172 579.954C573.924 579.954 573.68 579.94 573.432 579.909L486.935 569.324C483.626 568.918 481.27 565.908 481.677 562.599C482.078 559.286 485.071 556.926 488.402 557.341L574.894 567.925C578.203 568.331 580.559 571.342 580.153 574.65C579.778 577.711 577.178 579.954 574.172 579.954" fill="#262626" fill-rule="nonzero" opacity="1" stroke="none"/>
<path d="M562.659 661.869C562.411 661.869 562.167 661.856 561.919 661.824L476.889 651.416C473.58 651.014 471.224 648.004 471.631 644.691C472.032 641.382 475.025 639.013 478.356 639.437L563.381 649.845C566.69 650.247 569.046 653.258 568.64 656.566C568.265 659.626 565.665 661.869 562.659 661.869" fill="#262626" fill-rule="nonzero" opacity="1" stroke="none"/>
<path d="M576.063 746.835C575.815 746.835 575.571 746.822 575.323 746.79L476.472 734.689C473.164 734.288 470.808 731.277 471.214 727.964C471.616 724.66 474.64 722.3 477.939 722.71L576.785 734.807C580.098 735.213 582.45 738.223 582.044 741.532C581.669 744.592 579.069 746.835 576.063 746.835" fill="#262626" fill-rule="nonzero" opacity="1" stroke="none"/>
<path d="M500.814 781.991C501.107 782.19 501.378 782.42 501.626 782.668C501.766 782.813 501.924 782.93 502.069 783.056L502.556 783.472C502.714 783.589 503.066 783.896 503.463 784.126C503.635 784.225 503.806 784.334 503.964 784.451C519.554 795.622 548.102 798.29 621.456 795.405C672.73 790.075 717.237 785.458 764.562 754.549C790.632 737.519 829.972 711.828 834.661 670.327C835.564 651.731 831.628 632.711 822.926 614.178C822.168 612.567 821.414 611.055 820.665 609.593C820.15 608.582 819.595 607.544 819.035 606.546C813.818 596.982 806.262 588.659 797.167 582.412C788.127 576.242 778.937 570.632 769.098 565.27C767.884 564.611 766.656 563.984 765.433 563.352L764.255 562.742C762.842 562.011 761.772 560.752 761.285 559.235C758.306 550.005 755.178 541.037 751.974 532.578C748.458 523.285 745.271 515.603 742.459 508.828C735.874 492.95 730.67 480.416 725.565 458.372C721.999 442.994 720.095 429.855 718.564 419.303C716.804 407.125 714.976 394.532 711.848 393.625C706.938 392.221 691.425 406.137 680.881 427.594C674.057 441.486 672.323 453.1 671.06 461.581C667.304 486.834 663.409 506.729 659.162 522.396C658.318 525.488 655.217 527.392 652.08 526.72C643.238 524.838 633.967 522.924 624.06 520.888C606.67 517.332 597.48 515.991 591.4 515.111L587.83 514.578C554.832 509.474 515.009 505.795 499.997 522.752C492.383 531.396 491.489 544.878 497.357 562.815C498.363 565.888 496.765 569.206 493.741 570.343C477.226 576.531 465.938 589.517 464.268 604.226C462.115 623.07 476.784 635.965 481.329 639.472C482.995 640.754 483.902 642.835 483.676 644.925C483.45 647.019 482.182 648.86 480.277 649.759C463.97 657.445 454.216 671.911 454.83 687.501C455.435 702.346 465.631 715.954 481.433 723.004C483.866 724.092 485.297 726.646 484.958 729.291C482.124 751.182 486.542 768.062 498.088 779.464C498.982 780.33 499.898 781.179 500.814 781.991M575.558 808.544C531.813 808.544 511.263 804.423 497.149 794.412C496.346 793.92 495.578 793.338 494.825 792.738L494.315 792.305C494.039 792.074 493.764 791.84 493.498 791.596C493.349 791.488 493.209 791.379 493.096 791.28C491.913 790.242 490.78 789.195 489.643 788.093C476.048 774.666 470.303 755.844 472.505 732.072C454.781 722.674 443.51 706.123 442.766 687.984C442.08 670.444 451.553 653.604 467.427 643.155C459.854 635.347 450.15 621.445 452.276 602.863C454.266 585.278 466.358 569.734 484.295 561.244C479.041 541.696 481.311 525.704 490.952 514.759C509.733 493.541 551.397 496.727 589.676 502.649L593.143 503.164C599.358 504.066 608.75 505.434 626.484 509.063C634.338 510.674 641.789 512.213 648.943 513.716C652.518 499.399 655.867 481.684 659.121 459.807C660.421 451.06 662.389 437.849 670.044 422.272C679.261 403.51 698.899 377.286 715.206 382.03C725.809 385.104 727.578 397.322 730.516 417.574C732.01 427.901 733.874 440.76 737.323 455.645C742.206 476.71 747.239 488.842 753.612 504.197C756.46 511.058 759.683 518.835 763.266 528.304C766.263 536.225 769.197 544.571 772 553.156C772.952 553.648 773.905 554.149 774.862 554.663C785.071 560.224 794.595 566.042 803.987 572.451C814.653 579.776 823.504 589.544 829.602 600.706C830.202 601.78 830.834 602.967 831.412 604.1C832.215 605.666 833.027 607.3 833.849 609.042L833.853 609.047C843.399 629.384 847.719 650.327 846.69 671.302C841.328 718.824 799.126 746.389 771.197 764.632C721.39 797.161 675.537 801.918 622.44 807.429C622.314 807.443 622.061 807.461 621.934 807.47C604.056 808.17 588.751 808.544 575.558 808.544" fill="#262626" fill-rule="nonzero" opacity="1" stroke="none"/>
<path d="M707.687 538.545C707.267 538.545 706.843 538.5 706.414 538.41L643.789 524.946C640.53 524.246 638.454 521.033 639.154 517.774C639.858 514.52 643.053 512.457 646.326 513.143L708.951 526.607C712.21 527.307 714.286 530.52 713.586 533.779C712.977 536.609 710.472 538.545 707.687 538.545" fill="#262626" fill-rule="nonzero" opacity="1" stroke="none"/>
</g>
</g>
</svg>
