<?xml version="1.0" encoding="UTF-8" standalone="no"?>
<!DOCTYPE svg PUBLIC "-//W3C//DTD SVG 1.1//EN" "http://www.w3.org/Graphics/SVG/1.1/DTD/svg11.dtd">
<!-- Created with Vectornator (http://vectornator.io/) -->
<svg height="100%" stroke-miterlimit="10" style="fill-rule:nonzero;clip-rule:evenodd;stroke-linecap:round;stroke-linejoin:round;" version="1.1" viewBox="0 0 1080 1080" width="100%" xml:space="preserve" xmlns="http://www.w3.org/2000/svg" xmlns:xlink="http://www.w3.org/1999/xlink">
<defs/>
<g id="Layer-2">
<path d="M845.52 545.538C846.95 561.698 848.924 608.166 820.527 656.304C793.703 701.783 755.228 722.527 740.333 729.619C708.791 708.334 677.252 687.048 645.71 665.763C625.486 665.715 599.061 665.491 567.953 664.772C531.633 663.937 510.336 662.923 501.61 649.327C495.322 639.524 495.949 627.958 495.947 627.958C496.395 619.724 499.657 613.631 501.561 610.619C498.549 611.162 485.224 613.228 473.281 604.748C470.328 602.651 464.504 598.516 462.07 591.204C456.574 574.702 471.928 552.812 471.928 552.812C451.331 556.893 432.703 544.852 429.021 528.819C426.415 517.476 431.463 504.873 441.452 496.362C430.566 501.823 418.73 501.582 411.274 495.412C405.224 490.404 403.896 483.012 403.308 479.738C400.862 466.111 407.653 454.845 409.76 451.35C418.454 436.923 435.091 428.71 470.083 420.117C516.497 408.72 539.702 403.021 567.005 407.134C606.614 413.102 635.752 432.796 653.421 444.738C698.361 475.11 718.597 490.187 718.597 490.187C721.352 492.239 730.077 498.792 743.031 504.653C748.395 507.081 752.58 508.46 753.915 508.993C784.449 521.179 814.979 533.355 845.52 545.538" fill="#ffffff" fill-rule="nonzero" opacity="1" stroke="none"/>
<g opacity="1">
<path d="M845.52 545.538C846.95 561.698 848.924 608.166 820.527 656.304C793.703 701.783 755.228 722.527 740.333 729.619C708.791 708.334 677.252 687.048 645.71 665.763C625.486 665.715 599.061 665.491 567.953 664.772C531.633 663.937 510.336 662.923 501.61 649.327C495.322 639.524 495.949 627.958 495.947 627.958C496.395 619.724 499.657 613.631 501.561 610.619C498.549 611.162 485.224 613.228 473.281 604.748C470.328 602.651 464.504 598.516 462.07 591.204C456.574 574.702 471.928 552.812 471.928 552.812C451.331 556.893 432.703 544.852 429.021 528.819C426.415 517.476 431.463 504.873 441.452 496.362C430.566 501.823 418.73 501.582 411.274 495.412C405.224 490.404 403.896 483.012 403.308 479.738C400.862 466.111 407.653 454.845 409.76 451.35C418.454 436.923 435.091 428.71 470.083 420.117C516.497 408.72 539.702 403.021 567.005 407.134C606.614 413.102 635.752 432.796 653.421 444.738C698.361 475.11 718.597 490.187 718.597 490.187C721.352 492.239 730.077 498.792 743.031 504.653C748.395 507.081 752.58 508.46 753.915 508.993C784.449 521.179 814.979 533.355 845.52 545.538" fill="#ffffff" fill-rule="nonzero" opacity="1" stroke="#11152c" stroke-linecap="butt" stroke-linejoin="round" stroke-opacity="0.99" stroke-width="7"/>
<path d="M811.212 531.853C811.212 531.853 799.869 632.542 711.009 709.83L771.005 763.855C784.577 776.074 805.2 776.369 818.921 764.318C830.859 753.83 843.318 741.022 855.131 725.49C889.984 679.666 902.995 631.464 907.934 597.484C910.411 580.437 900.584 564.008 884.375 558.175L811.212 531.853Z" fill="#ec2961" fill-rule="nonzero" opacity="1" stroke="none"/>
<path d="M633.626 346.197L633.626 503.18L633.626 687.757C633.626 698.964 620.829 708.047 605.044 708.047L200.554 708.047C184.769 708.047 171.973 698.964 171.973 687.757L171.973 346.709C171.973 335.505 184.769 326.421 200.554 326.421L605.36 326.421C620.692 326.421 633.531 335.094 633.626 345.978C633.626 346.051 633.626 346.124 633.626 346.197" fill="#00b6f2" fill-rule="nonzero" opacity="1" stroke="none"/>
<path d="M633.336 336.852L633.336 351.379L171.686 351.379L171.686 336.852C171.686 320.253 186.619 306.81 205.058 306.81L599.964 306.81C611.499 306.81 621.653 312.061 627.649 320.06C631.234 324.855 633.336 330.636 633.336 336.852" fill="#11152c" fill-rule="nonzero" opacity="1" stroke="none"/>
<path d="M213.579 319.29C218.995 319.29 223.384 323.679 223.384 329.095C223.384 334.509 218.995 338.901 213.579 338.901C208.163 338.901 203.774 334.509 203.774 329.095C203.774 323.679 208.163 319.29 213.579 319.29" fill="#ffffff" fill-rule="nonzero" opacity="1" stroke="none"/>
<path d="M251.016 319.29C256.432 319.29 260.822 323.679 260.822 329.095C260.822 334.509 256.432 338.901 251.016 338.901C245.6 338.901 241.211 334.509 241.211 329.095C241.211 323.679 245.6 319.29 251.016 319.29" fill="#ffffff" fill-rule="nonzero" opacity="1" stroke="none"/>
<path d="M288.453 319.29C293.869 319.29 298.259 323.679 298.259 329.095C298.259 334.509 293.869 338.901 288.453 338.901C283.037 338.901 278.648 334.509 278.648 329.095C278.648 323.679 283.037 319.29 288.453 319.29" fill="#ffffff" fill-rule="nonzero" opacity="1" stroke="none"/>
<path d="M627.541 547.486C557.323 509.993 547.026 486.235 545.106 471.811C543.844 462.343 546.493 458.661 547.427 457.529C556.992 445.928 583.288 463.381 628.456 466.225C634.221 466.589 638.554 465.914 648.85 466.136C661.34 466.405 677.459 466.74 689.341 469.129C698.88 471.049 731.358 477.581 742.623 504.145" fill="#ffffff" fill-rule="nonzero" opacity="1" stroke="#11152c" stroke-linecap="butt" stroke-linejoin="round" stroke-opacity="0.99" stroke-width="7"/>
<path d="M709.334 596.661C629.025 563.666 581.189 523.857 580.715 523.458L586.048 517.108C586.515 517.498 633.454 556.519 712.485 588.99L709.334 596.661Z" fill="#11152c" fill-rule="nonzero" opacity="1" stroke="none"/>
<path d="M391.65 600.284C391.579 600.284 391.506 600.284 391.435 600.282C385.399 600.218 379.727 597.376 376.061 592.578L312.277 509.169C305.694 500.562 307.336 488.242 315.945 481.659C324.555 475.078 336.872 476.715 343.456 485.329L391.997 548.806L494.078 421.208C500.85 412.74 513.198 411.372 521.661 418.142C530.127 424.914 531.497 437.264 524.728 445.727L406.975 592.918C403.248 597.578 397.608 600.284 391.65 600.284" fill="#ffffff" fill-rule="nonzero" opacity="1" stroke="none"/>
</g>
<path d="M689.341 469.129C698.88 471.049 731.358 477.581 742.623 504.145" fill="#ffffff" fill-rule="nonzero" opacity="1" stroke="#11152c" stroke-linecap="butt" stroke-linejoin="round" stroke-opacity="0.99" stroke-width="7"/>
<path d="M730.664 564.483C726.845 569.179 720.144 578.105 707.593 581.959C690.829 587.108 678.521 574.791 627.718 547.662C557.499 510.169 547.026 486.235 545.106 471.811C543.844 462.343 546.493 458.661 547.427 457.529C556.992 445.928 583.288 463.381 628.456 466.225C634.221 466.589 638.554 465.914 648.85 466.136C661.34 466.405 677.459 466.74 689.341 469.129C698.88 471.049 731.358 477.581 742.623 504.145C751.961 526.171 741.915 550.644 730.664 564.483" fill="#ffffff" fill-rule="nonzero" opacity="0" stroke="#11152c" stroke-linecap="butt" stroke-linejoin="round" stroke-opacity="0.99" stroke-width="7"/>
</g>
</svg>
