<?xml version="1.0" encoding="UTF-8" standalone="no"?>
<!DOCTYPE svg PUBLIC "-//W3C//DTD SVG 1.1//EN" "http://www.w3.org/Graphics/SVG/1.1/DTD/svg11.dtd">
<!-- Created with Vectornator (http://vectornator.io/) -->
<svg height="100%" stroke-miterlimit="10" style="fill-rule:nonzero;clip-rule:evenodd;stroke-linecap:round;stroke-linejoin:round;" version="1.1" viewBox="0 0 772 772" width="100%" xml:space="preserve" xmlns="http://www.w3.org/2000/svg" xmlns:xlink="http://www.w3.org/1999/xlink">
<defs/>
<clipPath id="ArtboardFrame">
<rect height="772" width="772" x="0" y="0"/>
</clipPath>
<g clip-path="url(#ArtboardFrame)" id="Layer-1">
<path d="M777.788 672.756L5.78781 672.756L5.78781 669.756L777.516 670.35L777.788 672.756Z" fill="#dbdbdb" fill-rule="nonzero" opacity="1" stroke="none"/>
<g opacity="1">
<path d="M491.253 470.033C490.697 471.686 488.586 477.967 491.82 482.789C494.547 486.855 501.337 490.273 506.56 486.899C510.884 484.105 512.487 477.719 509.536 472.442C508.963 472.24 508.054 472.006 507.552 472.442C506.515 473.343 508.56 475.93 507.552 478.253C506.832 479.913 504.687 481.131 502.875 480.804C500.662 480.404 499.22 477.748 499.048 475.56C498.657 470.586 504.752 467.035 503.725 465.356C503.439 464.888 502.592 464.554 500.251 464.98C499.833 464.401 497.523 461.271 495.788 461.813C495.074 462.035 494.751 462.789 494.088 464.222C491.779 469.206 491.719 468.645 491.253 470.033" fill="#dbdbdb" fill-rule="nonzero" opacity="1" stroke="none"/>
<path d="M494.654 242.129L507.268 242.129L507.268 195.216L494.654 195.216L494.654 242.129Z" fill="#dbdbdb" fill-rule="nonzero" opacity="1" stroke="none"/>
<path d="M567.006 267.991L594.684 267.991L594.684 246.826L567.006 246.826L567.006 267.991ZM602.323 238.936L602.323 287.278L585.157 287.278C572.643 287.278 562.498 277.133 562.498 264.618L562.498 238.936L602.323 238.936Z" fill="#dbdbdb" fill-rule="nonzero" opacity="1" stroke="none"/>
<path d="M562.498 292.914L637.641 292.914L637.641 287.278L562.498 287.278L562.498 292.914Z" fill="#dbdbdb" fill-rule="nonzero" opacity="1" stroke="none"/>
<path d="M562.498 302.182L637.641 302.182L637.641 296.546L562.498 296.546L562.498 302.182Z" fill="#dbdbdb" fill-rule="nonzero" opacity="1" stroke="none"/>
<path d="M450.214 566.393L702.101 566.393L702.101 563.393L450.214 563.393L450.214 566.393Z" fill="#dbdbdb" fill-rule="nonzero" opacity="1" stroke="none"/>
<path d="M497.931 456.479L500.199 456.479L500.199 242.04L497.931 242.04L497.931 456.479Z" fill="#dbdbdb" fill-rule="nonzero" opacity="1" stroke="none"/>
<path d="M729.047 202.216L730.83 200.133L639.486 128.79L637.703 130.873L729.047 202.216Z" fill="#dbdbdb" fill-rule="nonzero" opacity="1" stroke="none"/>
<path d="M636.405 565.067L639 563.561L604.284 503.733L639.422 447.265L604.266 377.844L639.436 324.576L604.241 255.665L639.421 194.904L603.854 128.948L601.214 130.372L635.984 194.852L600.827 255.575L635.968 324.382L600.802 377.645L635.983 447.115L600.784 503.678L636.405 565.067Z" fill="#dbdbdb" fill-rule="nonzero" opacity="1" stroke="none"/>
<path d="M603.854 565.026L639.42 499.07L604.241 438.309L639.436 369.398L604.266 316.13L639.422 246.708L604.284 190.242L639 130.413L636.405 128.907L600.784 190.295L635.983 246.859L600.802 316.329L635.968 369.591L600.827 438.399L635.984 499.123L601.213 563.602L603.854 565.026Z" fill="#dbdbdb" fill-rule="nonzero" opacity="1" stroke="none"/>
<path d="M531.554 238.567L600.465 203.371L661.226 238.551L727.182 202.984L725.758 200.344L661.278 235.115L600.554 199.957L531.747 235.099L478.485 199.932L409.015 235.113L352.452 199.914L291.062 235.536L292.568 238.131L352.397 203.414L408.864 238.553L478.285 203.396L531.554 238.567Z" fill="#dbdbdb" fill-rule="nonzero" opacity="1" stroke="none"/>
<path d="M486.732 238.567L540 203.396L609.422 238.553L665.888 203.414L725.717 238.131L727.223 235.536L665.835 199.914L609.271 235.113L539.801 199.932L486.539 235.099L417.731 199.957L357.008 235.115L292.527 200.344L291.104 202.984L357.061 238.551L417.821 203.371L486.732 238.567Z" fill="#dbdbdb" fill-rule="nonzero" opacity="1" stroke="none"/>
<path d="M636.203 562.815L604.034 562.815L604.034 131.161L636.203 131.161L636.203 562.815ZM601.034 565.815L639.203 565.815L639.203 128.161L601.034 128.161L601.034 565.815Z" fill="#dbdbdb" fill-rule="nonzero" opacity="1" stroke="none"/>
<path d="M724.97 235.333L293.315 235.333L293.315 203.164L724.97 203.164L724.97 235.333ZM290.316 238.333L727.971 238.333L727.971 200.164L290.316 200.164L290.316 238.333Z" fill="#dbdbdb" fill-rule="nonzero" opacity="1" stroke="none"/>
<path d="M310.473 202.94L598.607 166.758L598.302 164.206L310.168 200.389L310.473 202.94Z" fill="#dbdbdb" fill-rule="nonzero" opacity="1" stroke="none"/>
<path d="M291.273 202.915L598.454 131.401L597.891 128.899L290.71 200.414L291.273 202.915Z" fill="#dbdbdb" fill-rule="nonzero" opacity="1" stroke="none"/>
<path d="M513.932 476.491C513.932 481.696 509.712 485.916 504.507 485.916C499.302 485.916 495.082 481.696 495.082 476.491C495.082 471.285 499.302 467.066 504.507 467.066C509.712 467.066 513.932 471.285 513.932 476.491" fill="#dbdbdb" fill-rule="nonzero" opacity="1" stroke="none"/>
</g>
<g opacity="0">
<path d="M565.34 673.73L579.154 674.626L577.422 640.13L579.154 601.31L565.34 601.393L565.34 673.73Z" fill="#dbdbdb" fill-rule="nonzero" opacity="1" stroke="none"/>
<path d="M754.083 678.969L773.116 680.043L773.116 605.144L754.083 605.244L754.083 678.969Z" fill="#dbdbdb" fill-rule="nonzero" opacity="1" stroke="none"/>
<path d="M560.059 629.937L782.134 630.537C787.971 630.553 792.743 626.699 792.743 621.929L792.743 568.241C792.743 563.471 787.971 559.866 782.134 560.185L560.059 572.352C556.182 572.564 553.061 575.851 553.061 579.695L553.061 622.958C553.061 626.802 556.182 629.927 560.059 629.937" fill="#141414" fill-rule="nonzero" opacity="1" stroke="none"/>
<path d="M552.258 627.073L773.171 627.666C778.969 627.681 783.71 623.854 783.71 619.116L783.71 565.793C783.71 561.056 778.969 557.473 773.171 557.789L552.258 569.806C548.397 570.016 545.288 573.284 545.288 577.107L545.288 620.133C545.288 623.955 548.397 627.063 552.258 627.073" fill="#ff2a6d" fill-rule="nonzero" opacity="1" stroke="none"/>
<g opacity="1">
<clipPath id="ClipPath">
<path d="M783.815 565.787L783.815 619.111C783.815 623.848 779.074 627.676 773.275 627.66L552.363 627.067C548.501 627.057 545.393 623.95 545.393 620.128L545.393 577.101C545.393 573.278 548.501 570.01 552.363 569.8L773.275 557.783C773.513 557.77 773.749 557.763 773.983 557.763C779.455 557.763 783.815 561.244 783.815 565.787"/>
</clipPath>
<g clip-path="url(#ClipPath)">
<path d="M679.281 748.551L700.375 758.541L813.345 534.762L787.954 528.306L679.281 748.551Z" fill="#ffffff" fill-rule="nonzero" opacity="1" stroke="none"/>
<path d="M633.195 726.725L652.589 735.91L755.954 520.17L732.795 514.281L633.195 726.725Z" fill="#ffffff" fill-rule="nonzero" opacity="1" stroke="none"/>
<path d="M590.719 706.609L608.61 715.082L703.546 506.845L682.337 501.452L590.719 706.609Z" fill="#ffffff" fill-rule="nonzero" opacity="1" stroke="none"/>
<path d="M551.447 688.01L568.004 695.851L655.502 494.629L636.006 489.672L551.447 688.01Z" fill="#ffffff" fill-rule="nonzero" opacity="1" stroke="none"/>
<path d="M515.028 670.763L530.394 678.04L611.296 483.389L593.314 478.817L515.028 670.763Z" fill="#ffffff" fill-rule="nonzero" opacity="1" stroke="none"/>
<path d="M481.163 654.724L495.463 661.496L570.487 473.012L553.849 468.782L481.163 654.724Z" fill="#ffffff" fill-rule="nonzero" opacity="1" stroke="none"/>
</g>
</g>
</g>
<g opacity="1">
<g opacity="1">
<path d="M447.493 672.539L153.746 672.539C153.004 672.539 152.369 672.006 152.24 671.275L56.3634 127.531C56.2844 127.086 56.4074 126.628 56.6984 126.282C56.9884 125.935 57.4174 125.735 57.8704 125.735L351.616 125.735C352.359 125.735 352.994 126.268 353.123 126.999L449 670.743C449.078 671.188 448.956 671.645 448.665 671.992C448.375 672.339 447.945 672.539 447.493 672.539" fill="#393846" fill-rule="nonzero" opacity="0" stroke="none"/>
<path d="M473.133 664.25L179.386 664.25L83.51 120.506L377.256 120.506L473.133 664.25Z" fill="#ffffff" fill-rule="nonzero" opacity="1" stroke="none"/>
<path d="M448.498 609.489C448.208 609.829 447.788 610.019 447.348 610.019L189.018 610.019C188.288 610.019 187.668 609.499 187.538 608.779L108.648 161.359C108.568 160.919 108.688 160.469 108.978 160.129C109.258 159.789 109.678 159.599 110.118 159.599L368.448 159.599C369.178 159.599 369.808 160.119 369.928 160.839L448.818 608.259C448.898 608.699 448.778 609.149 448.498 609.489" fill="#00bcfa" fill-rule="nonzero" opacity="1" stroke="none"/>
<path d="M328.778 620.815C324.237 620.815 320.278 622.553 317.629 625.71C314.915 628.945 313.873 633.291 314.693 637.948C316.41 647.682 325.717 655.601 335.441 655.601C339.982 655.601 343.941 653.863 346.59 650.706C349.304 647.471 350.346 643.126 349.525 638.469C347.808 628.735 338.502 620.815 328.778 620.815M335.441 658.601C324.329 658.601 313.697 649.57 311.739 638.469C310.761 632.923 312.037 627.708 315.331 623.782C318.56 619.934 323.335 617.815 328.778 617.815C339.889 617.815 350.521 626.847 352.479 637.948C353.457 643.494 352.182 648.709 348.888 652.634C345.659 656.482 340.883 658.601 335.441 658.601" fill="#393846" fill-rule="nonzero" opacity="1" stroke="none"/>
<path d="M197.048 140.893C197.566 143.832 195.604 146.215 192.664 146.215C189.725 146.215 186.922 143.832 186.404 140.893C185.885 137.954 187.848 135.571 190.787 135.571C193.727 135.571 196.53 137.954 197.048 140.893" fill="#393846" fill-rule="nonzero" opacity="1" stroke="none"/>
<path d="M274.05 146.215L205.083 146.215L203.167 135.349L272.134 135.349L274.05 146.215Z" fill="#393846" fill-rule="nonzero" opacity="1" stroke="none"/>
<path d="M186.727 666.91L477.427 666.91L382.08 126.166L91.3789 126.166L186.727 666.91ZM479.215 669.91L185.468 669.91C184.74 669.91 184.118 669.388 183.991 668.671L88.1149 124.927C88.0379 124.49 88.1579 124.041 88.4429 123.702C88.7269 123.362 89.1479 123.166 89.5919 123.166L383.339 123.166C384.066 123.166 384.689 123.688 384.816 124.405L480.692 668.149C480.769 668.586 480.648 669.034 480.364 669.374C480.079 669.714 479.658 669.91 479.215 669.91" fill="#393846" fill-rule="nonzero" opacity="1" stroke="none"/>
<path d="M180.455 408.994L389.927 408.994L357.444 224.774L147.972 224.774L180.455 408.994Z" fill="#fffefd" fill-rule="nonzero" opacity="1" stroke="none"/>
</g>
<g opacity="1">
<clipPath id="ClipPath_2">
<path d="M147.972 224.774L180.455 408.994L389.927 408.994L357.444 224.774L147.972 224.774Z"/>
</clipPath>
<g clip-path="url(#ClipPath_2)">
<path d="M130.962 253.339L390.939 253.339L382.618 206.146L122.64 206.146L130.962 253.339Z" fill="#ec2961" fill-rule="nonzero" opacity="1" stroke="none"/>
</g>
</g>
<g opacity="1">
<path d="M316.458 306.065L345.587 306.065L340.451 276.936L311.322 276.936L316.458 306.065Z" fill="#00bcfa" fill-rule="nonzero" opacity="1" stroke="none"/>
<path d="M273.804 306.065L302.933 306.065L297.797 276.936L268.668 276.936L273.804 306.065Z" fill="#00bcfa" fill-rule="nonzero" opacity="1" stroke="none"/>
<path d="M231.15 306.065L260.279 306.065L255.143 276.936L226.014 276.936L231.15 306.065Z" fill="#00bcfa" fill-rule="nonzero" opacity="1" stroke="none"/>
<path d="M188.497 306.065L217.626 306.065L212.49 276.936L183.361 276.936L188.497 306.065Z" fill="#fffefd" fill-rule="nonzero" opacity="1" stroke="none"/>
<path d="M324.195 349.946L353.324 349.946L348.188 320.817L319.059 320.817L324.195 349.946Z" fill="#00bcfa" fill-rule="nonzero" opacity="1" stroke="none"/>
<path d="M281.541 349.946L310.67 349.946L305.534 320.817L276.405 320.817L281.541 349.946Z" fill="#00bcfa" fill-rule="nonzero" opacity="1" stroke="none"/>
<path d="M238.888 349.946L268.017 349.946L262.881 320.817L233.752 320.817L238.888 349.946Z" fill="#00bcfa" fill-rule="nonzero" opacity="1" stroke="none"/>
<path d="M196.234 349.946L225.363 349.946L220.227 320.817L191.098 320.817L196.234 349.946Z" fill="#fffefd" fill-rule="nonzero" opacity="1" stroke="none"/>
<path d="M331.933 393.828L361.062 393.828L355.926 364.699L326.797 364.699L331.933 393.828Z" fill="#00bcfa" fill-rule="nonzero" opacity="1" stroke="none"/>
<path d="M289.279 393.828L318.408 393.828L313.272 364.699L284.143 364.699L289.279 393.828Z" fill="#00bcfa" fill-rule="nonzero" opacity="1" stroke="none"/>
<path d="M246.625 393.828L275.754 393.828L270.618 364.699L241.489 364.699L246.625 393.828Z" fill="#00bcfa" fill-rule="nonzero" opacity="1" stroke="none"/>
<path d="M203.972 393.828L233.101 393.828L227.965 364.699L198.836 364.699L203.972 393.828Z" fill="#fffefd" fill-rule="nonzero" opacity="1" stroke="none"/>
<path d="M211.231 278.435L185.149 278.435L189.755 304.564L215.838 304.564L211.231 278.435ZM181.574 275.435L213.749 275.435L219.415 307.564L187.238 307.564L181.574 275.435Z" fill="#fb615f" fill-rule="nonzero" opacity="1" stroke="none"/>
<path d="M218.968 322.317L192.886 322.317L197.492 348.446L223.575 348.446L218.968 322.317ZM189.311 319.317L221.486 319.317L227.152 351.446L194.975 351.446L189.311 319.317Z" fill="#fb615f" fill-rule="nonzero" opacity="1" stroke="none"/>
<path d="M226.706 366.198L200.623 366.198L205.23 392.328L231.313 392.328L226.706 366.198ZM197.047 363.198L229.224 363.198L234.888 395.328L202.713 395.328L197.047 363.198Z" fill="#fb615f" fill-rule="nonzero" opacity="1" stroke="none"/>
<path d="M180.455 408.994L389.927 408.994L357.444 224.774L147.972 224.774L180.455 408.994Z" fill="none" opacity="1" stroke="#393846" stroke-linecap="round" stroke-linejoin="round" stroke-width="3"/>
<path d="M329.811 298.461L319.583 289.688C318.953 289.148 318.882 288.201 319.42 287.572C319.958 286.944 320.906 286.871 321.536 287.41L328.414 293.311L338.846 263.071C339.116 262.287 339.97 261.872 340.753 262.142C341.536 262.412 341.952 263.267 341.681 264.049L329.811 298.461Z" fill="#393846" fill-rule="nonzero" opacity="1" stroke="none"/>
<path d="M414.789 488.291L377.941 488.291L371.444 451.443L408.292 451.443L414.789 488.291Z" fill="#ffffff" fill-rule="nonzero" opacity="1" stroke="none"/>
<path d="M394.219 480.442C393.765 480.442 393.332 480.236 393.046 479.877L377.089 459.856C376.572 459.208 376.679 458.264 377.327 457.748C377.976 457.231 378.92 457.338 379.435 457.985L393.96 476.21L409.952 445.795C410.338 445.062 411.242 444.779 411.978 445.166C412.711 445.552 412.993 446.459 412.608 447.192L395.547 479.64C395.311 480.088 394.865 480.388 394.361 480.435C394.313 480.439 394.266 480.442 394.219 480.442" fill="#393846" fill-rule="nonzero" opacity="1" stroke="none"/>
<path d="M379.2 486.791L413.001 486.791L407.033 452.943L373.231 452.943L379.2 486.791ZM414.789 489.791L377.941 489.791C377.213 489.791 376.591 489.269 376.464 488.551L369.967 451.704C369.889 451.267 370.01 450.819 370.295 450.479C370.579 450.14 371 449.943 371.444 449.943L408.292 449.943C409.02 449.943 409.642 450.466 409.769 451.183L416.266 488.031C416.343 488.467 416.223 488.916 415.938 489.255C415.653 489.595 415.232 489.791 414.789 489.791" fill="#393846" fill-rule="nonzero" opacity="1" stroke="none"/>
<path d="M347.339 465.071L190.182 465.071L187.762 451.343L344.918 451.343L347.339 465.071Z" fill="#ffffff" fill-rule="nonzero" opacity="1" stroke="none"/>
<path d="M191.441 463.571L345.551 463.571L343.66 452.843L189.549 452.843L191.441 463.571ZM347.339 466.571L190.182 466.571C189.454 466.571 188.832 466.048 188.705 465.331L186.285 451.604C186.208 451.167 186.328 450.719 186.613 450.379C186.897 450.04 187.318 449.843 187.762 449.843L344.918 449.843C345.646 449.843 346.269 450.366 346.395 451.083L348.816 464.811C348.893 465.247 348.773 465.695 348.488 466.035C348.203 466.375 347.782 466.571 347.339 466.571" fill="#393846" fill-rule="nonzero" opacity="1" stroke="none"/>
<path d="M261.49 488.266L194.272 488.266L191.852 474.538L259.069 474.538L261.49 488.266Z" fill="#ffffff" fill-rule="nonzero" opacity="1" stroke="none"/>
<path d="M195.53 486.766L259.701 486.766L257.81 476.038L193.638 476.038L195.53 486.766ZM261.489 489.766L194.271 489.766C193.543 489.766 192.921 489.244 192.794 488.526L190.374 474.799C190.297 474.362 190.417 473.914 190.702 473.574C190.987 473.235 191.407 473.038 191.851 473.038L259.069 473.038C259.797 473.038 260.419 473.561 260.546 474.278L262.966 488.006C263.043 488.442 262.923 488.891 262.638 489.23C262.353 489.57 261.932 489.766 261.489 489.766" fill="#393846" fill-rule="nonzero" opacity="1" stroke="none"/>
<path d="M429.151 560.107L392.303 560.107L385.806 523.259L422.654 523.259L429.151 560.107Z" fill="#ffffff" fill-rule="nonzero" opacity="1" stroke="none"/>
<path d="M408.581 552.258C408.127 552.258 407.694 552.052 407.408 551.693L391.451 531.672C390.935 531.024 391.041 530.08 391.689 529.564C392.338 529.047 393.282 529.155 393.797 529.801L408.322 548.027L424.314 517.612C424.7 516.878 425.604 516.595 426.34 516.982C427.073 517.368 427.355 518.275 426.97 519.008L409.909 551.456C409.673 551.904 409.227 552.204 408.723 552.251C408.675 552.255 408.628 552.258 408.581 552.258" fill="#393846" fill-rule="nonzero" opacity="1" stroke="none"/>
<path d="M393.562 558.607L427.363 558.607L421.395 524.759L387.593 524.759L393.562 558.607ZM429.151 561.607L392.303 561.607C391.575 561.607 390.953 561.084 390.826 560.367L384.329 523.52C384.252 523.083 384.372 522.635 384.657 522.295C384.941 521.956 385.362 521.759 385.806 521.759L422.654 521.759C423.382 521.759 424.004 522.282 424.131 522.999L430.628 559.847C430.705 560.283 430.585 560.731 430.3 561.071C430.015 561.411 429.594 561.607 429.151 561.607" fill="#393846" fill-rule="nonzero" opacity="1" stroke="none"/>
<path d="M361.701 536.887L204.544 536.887L202.124 523.159L359.28 523.159L361.701 536.887Z" fill="#ffffff" fill-rule="nonzero" opacity="1" stroke="none"/>
<path d="M205.803 535.387L359.913 535.387L358.022 524.659L203.911 524.659L205.803 535.387ZM361.701 538.387L204.544 538.387C203.816 538.387 203.194 537.864 203.067 537.147L200.647 523.42C200.57 522.983 200.69 522.535 200.975 522.195C201.26 521.856 201.68 521.659 202.124 521.659L359.281 521.659C360.009 521.659 360.631 522.182 360.758 522.899L363.178 536.627C363.255 537.063 363.135 537.511 362.85 537.851C362.565 538.191 362.144 538.387 361.701 538.387" fill="#393846" fill-rule="nonzero" opacity="1" stroke="none"/>
<path d="M275.851 560.082L208.633 560.082L206.213 546.354L273.43 546.354L275.851 560.082Z" fill="#ffffff" fill-rule="nonzero" opacity="1" stroke="none"/>
<path d="M209.892 558.582L274.063 558.582L272.172 547.855L208 547.855L209.892 558.582ZM275.851 561.582L208.633 561.582C207.905 561.582 207.283 561.06 207.156 560.342L204.736 546.615C204.659 546.178 204.779 545.73 205.064 545.39C205.349 545.051 205.769 544.855 206.213 544.855L273.431 544.855C274.159 544.855 274.781 545.377 274.908 546.094L277.328 559.822C277.405 560.258 277.285 560.706 277 561.046C276.715 561.386 276.294 561.582 275.851 561.582" fill="#393846" fill-rule="nonzero" opacity="1" stroke="none"/>
</g>
</g>
<g opacity="1">
<g opacity="1">
<path d="M503.474 303.985C501.486 305.191 488.855 312.619 479.433 307.539C477.337 306.407 475.448 304.689 473.811 302.779C471.612 300.223 469.863 297.335 468.656 295.097C468.034 293.941 467.553 292.963 467.228 292.29C467.185 292.192 467.134 292.094 467.088 291.992C465.589 288.873 465.175 287.039 462.943 283.84C462.914 283.798 462.885 283.755 462.852 283.712C462.385 283.048 461.911 282.427 461.422 281.831C460.59 280.809 459.72 279.868 458.754 278.898C457.603 277.747 456.32 276.569 454.816 275.199C453.902 274.367 453.091 273.65 452.367 273.03C452.171 272.861 451.983 272.7 451.803 272.548C451.903 272.202 452.026 271.852 452.174 271.506C452.953 269.679 454.256 268.344 455.6 267.378C456.85 266.474 458.131 265.895 459.05 265.543C462.157 263.322 465.264 261.097 468.371 258.876C472.446 258.774 476.522 258.675 480.597 258.573C481.08 259.13 481.572 259.698 482.068 260.278C482.411 260.672 482.75 261.07 483.097 261.476C483.085 261.457 483.068 261.429 483.047 261.39C482.714 260.821 482.373 260.256 482.025 259.699C481.194 258.347 480.323 257.016 479.425 255.702C479.417 255.69 479.413 255.682 479.404 255.671C478.181 253.886 476.914 252.123 475.637 250.384C468.445 240.599 468.314 239.013 468.634 237.751C469 236.296 470.154 234.533 471.741 233.971C478.241 231.682 492.565 249.342 499.139 265.981C502.01 273.257 505.728 286.229 503.474 303.985" fill="#ffffff" fill-rule="nonzero" opacity="1" stroke="none"/>
<path d="M498.39 266.277C491.771 249.525 477.718 232.725 472.009 234.73C470.722 235.186 469.729 236.693 469.413 237.949C469.164 238.93 469.489 240.662 476.284 249.908C477.718 251.858 478.955 253.595 480.088 255.249C481.051 256.658 481.909 257.976 482.707 259.272C483.059 259.836 483.404 260.409 483.766 261.03C484.002 261.384 483.922 261.86 483.582 262.117C483.243 262.375 482.762 262.322 482.486 262L481.457 260.801C481.047 260.322 480.64 259.85 480.238 259.388L468.637 259.675L459.517 266.199C459.461 266.238 459.401 266.271 459.337 266.295C458.115 266.763 457.016 267.347 456.069 268.032C454.596 269.091 453.534 270.366 452.913 271.821C452.848 271.975 452.788 272.13 452.732 272.285L452.89 272.419C453.619 273.044 454.436 273.765 455.357 274.604C456.83 275.947 458.145 277.153 459.323 278.331C460.387 279.398 461.252 280.349 462.044 281.322C462.567 281.96 463.046 282.591 463.479 283.21C463.525 283.269 463.567 283.328 463.603 283.381C465.208 285.681 465.893 287.279 466.686 289.13C467.017 289.901 467.365 290.715 467.816 291.655L467.952 291.941C468.273 292.607 468.749 293.574 469.364 294.716C470.957 297.671 472.658 300.207 474.421 302.256C476.182 304.311 477.997 305.85 479.815 306.832C488.107 311.299 499.058 305.668 502.724 303.497C504.352 290.213 502.895 277.692 498.39 266.277M479.05 308.248C477.058 307.172 475.09 305.508 473.201 303.304C471.363 301.169 469.595 298.536 467.947 295.479C467.318 294.309 466.831 293.321 466.49 292.612L466.362 292.341C465.904 291.389 465.546 290.554 465.208 289.764C464.449 287.994 463.795 286.466 462.283 284.3L462.943 283.841L462.193 284.175C461.753 283.548 461.297 282.948 460.798 282.34C460.039 281.408 459.208 280.494 458.185 279.467C457.033 278.315 455.732 277.122 454.273 275.794C453.367 274.968 452.562 274.256 451.842 273.641L451.282 273.162C451.04 272.957 450.941 272.629 451.03 272.325C451.141 271.941 451.276 271.56 451.433 271.191C452.171 269.461 453.415 267.958 455.128 266.727C456.162 265.98 457.351 265.342 458.664 264.831L467.903 258.222C468.034 258.129 468.189 258.076 468.35 258.072L479.854 257.787C479.5 257.249 479.131 256.697 478.741 256.126C477.638 254.52 476.411 252.797 474.988 250.861C467.719 240.969 467.444 239.17 467.853 237.555C468.26 235.937 469.566 233.888 471.474 233.214C478.716 230.648 493.393 249.249 499.887 265.686C504.535 277.467 506.011 290.386 504.272 304.087C504.241 304.33 504.101 304.545 503.891 304.673C501.347 306.217 494.2 310.11 486.897 310.11C484.23 310.11 481.542 309.59 479.05 308.248" fill="#141414" fill-rule="nonzero" opacity="1" stroke="none"/>
<path d="M481.9 287.45C480.892 293.049 480.905 293.446 476.524 293.192C472.142 292.939 471.716 267.909 471.716 267.909C471.716 267.909 471.641 289.775 470.567 293.388C469.941 295.492 469.004 296.258 467.756 295.922C466.866 295.68 465.814 294.872 464.611 293.584C463.424 292.315 462.556 288.54 461.952 284.537C461.084 278.821 460.741 272.643 460.741 272.643C460.741 272.643 460.898 277.408 460.522 282.656C460.069 289.047 458.828 296.16 455.556 296.267C450.564 296.432 451.148 279.378 451.467 273.854C451.532 272.787 451.582 272.149 451.582 272.149C451.512 271.792 451.059 269.268 452.748 267.34C453.045 267.001 454.344 265.519 456.269 265.634C457.209 265.69 457.913 266.104 458.281 266.363C458.251 265.8 458.213 263.822 459.594 261.947C459.848 261.603 461.109 259.893 463.221 259.443C465.118 259.039 467.471 259.7 467.471 259.7C467.577 259.166 468.085 256.898 470.12 255.638C472.766 254 475.788 255.429 476.618 255.822C479.807 257.33 480.931 260.399 481.168 261.102C481.66 267.697 482.687 283.091 481.9 287.45" fill="#ffffff" fill-rule="nonzero" opacity="1" stroke="none"/>
<path d="M461.545 272.598C461.548 272.66 461.895 278.807 462.747 284.416C463.687 290.639 464.686 292.488 465.199 293.036C466.604 294.54 467.48 295.013 467.966 295.145C468.307 295.24 469.112 295.456 469.797 293.159C470.619 290.389 470.886 275.43 470.912 267.906C470.914 267.465 471.27 267.108 471.711 267.105L471.717 267.105C472.155 267.105 472.513 267.457 472.521 267.896C472.721 279.623 474.396 292.264 476.57 292.389C480.158 292.599 480.158 292.597 481.053 287.617L481.109 287.308C481.876 283.058 480.857 267.765 480.374 261.266C479.996 260.191 478.891 257.787 476.274 256.549C473.981 255.463 472.054 255.386 470.544 256.322C468.915 257.331 468.404 259.129 468.26 259.856C468.217 260.076 468.083 260.268 467.892 260.385C467.701 260.502 467.469 260.535 467.254 260.474C467.232 260.469 465.064 259.873 463.389 260.229C462.218 260.479 461.1 261.259 460.242 262.425C459.092 263.985 459.05 265.669 459.085 266.32C459.101 266.627 458.941 266.918 458.671 267.067C458.401 267.217 458.069 267.199 457.818 267.021C457.322 266.671 456.77 266.47 456.221 266.438C455.222 266.373 454.227 266.873 453.353 267.87C451.958 269.462 452.291 271.583 452.372 271.993C452.386 272.065 452.39 272.139 452.385 272.213C452.385 272.217 452.334 272.848 452.27 273.9C451.775 282.49 452.096 292.541 454.483 294.989C454.812 295.325 455.149 295.483 455.53 295.463C456.518 295.431 458.904 294.112 459.721 282.598C460.089 277.456 459.939 272.716 459.938 272.669C459.923 272.229 460.266 271.859 460.706 271.84C460.718 271.839 460.73 271.839 460.742 271.839C461.167 271.839 461.521 272.171 461.545 272.598M453.332 296.113C450.083 292.782 450.266 280.707 450.665 273.806C450.714 272.985 450.756 272.416 450.773 272.192C450.645 271.449 450.359 268.847 452.143 266.81C453.678 265.059 455.264 264.775 456.317 264.831C456.725 264.855 457.131 264.938 457.524 265.075C457.649 264.04 458.016 262.734 458.947 261.471C460.038 259.987 461.497 258.988 463.054 258.656C464.426 258.364 465.973 258.564 466.888 258.743C467.237 257.63 468.012 255.998 469.697 254.954C471.7 253.714 474.144 253.761 476.962 255.095C480.215 256.634 481.521 259.629 481.931 260.846C481.952 260.91 481.965 260.976 481.971 261.043C482.572 269.116 483.467 283.3 482.692 287.593L482.637 287.902C481.652 293.376 481.354 294.267 476.477 293.996C474.309 293.87 472.982 289.697 472.171 284.619C471.995 288.707 471.732 292.293 471.339 293.618C470.403 296.757 468.761 297.023 467.546 296.698C466.53 296.422 465.378 295.583 464.023 294.133C462.874 292.904 461.938 289.814 461.161 284.687C460.372 292.918 458.541 296.974 455.583 297.072C455.549 297.073 455.516 297.073 455.483 297.073C454.677 297.073 453.954 296.75 453.332 296.113" fill="#141414" fill-rule="nonzero" opacity="1" stroke="none"/>
<path d="M490.775 269.584C494.149 277.255 498.531 279.631 499.912 283.506L492.61 302.02C485.016 300.013 477.414 292.113 481.339 282.341C482.858 278.911 483.201 272.351 483.238 269.306C483.276 266.261 487.401 261.913 490.775 269.584" fill="#ffffff" fill-rule="nonzero" opacity="1" stroke="none"/>
<path d="M492.61 302.824C492.966 302.824 493.292 302.586 493.387 302.225C493.501 301.795 493.245 301.356 492.815 301.241C488.319 300.054 484.322 296.916 482.383 293.053C480.755 289.811 480.652 286.21 482.085 282.641C483.797 278.775 484.016 271.464 484.042 269.315C484.058 268.044 485.019 266.374 486.235 266.126C487.483 265.87 488.869 267.25 490.038 269.907C491.978 274.318 494.254 277.032 496.083 279.213C497.487 280.889 498.597 282.211 499.154 283.776C499.303 284.194 499.763 284.415 500.181 284.263C500.6 284.114 500.818 283.655 500.669 283.236C500.015 281.4 498.764 279.907 497.316 278.18C495.553 276.077 493.358 273.46 491.511 269.26C489.455 264.587 487.121 264.309 485.913 264.55C483.862 264.968 482.458 267.341 482.434 269.295C482.416 270.769 482.243 278.311 480.603 282.016C478.982 286.051 479.104 290.108 480.945 293.776C483.085 298.038 487.475 301.495 492.404 302.798C492.473 302.816 492.542 302.824 492.61 302.824" fill="#141414" fill-rule="nonzero" opacity="1" stroke="none"/>
<path d="M575.908 239.838C574.871 242.985 573.369 247.51 571.538 252.949C571.538 252.949 565.626 270.494 560.413 285.131C544.179 330.711 536.058 353.501 522.831 357.172C504.917 362.142 482.5 336.559 471.161 321.537C470.911 321.211 470.668 320.889 470.434 320.572C466.961 315.919 464.657 312.442 464.029 311.481C468.793 308.171 474.347 304.754 480.716 301.548C492.032 295.847 502.604 292.478 511.309 290.424C512.839 292.704 514.369 294.981 515.898 297.261C516.129 297.607 516.359 297.949 516.59 298.294C517.456 299.586 518.322 300.877 519.188 302.168C519.554 302.713 519.919 303.261 520.284 303.805C520.293 303.773 520.3 303.745 520.312 303.714C520.861 301.799 521.568 299.486 522.478 296.892C522.553 296.685 522.625 296.479 522.7 296.272C527.683 282.33 538.394 260.629 560.81 246.989C565.948 243.863 571.053 241.554 575.908 239.838" fill="#ff2a6d" fill-rule="nonzero" opacity="1" stroke="none"/>
</g>
<g opacity="1">
<path d="M576.653 660.391C577.075 673.826 577.497 687.262 577.918 700.698C575.335 701.982 571.481 703.551 566.566 704.383C561.908 705.171 557.922 705.021 555.109 704.709C553.442 689.068 551.774 673.427 550.107 657.786C558.956 658.654 567.804 659.523 576.653 660.391" fill="#ffffff" fill-rule="nonzero" opacity="1" stroke="#141414" stroke-linecap="round" stroke-linejoin="round" stroke-width="2"/>
<path d="M509.37 715.283C509.467 716.762 512.126 718.087 517.344 719.258C532.558 718.055 544.566 718.797 553.697 720.057C554.114 720 554.504 719.938 554.864 719.87C565.267 717.892 573.162 719.348 579.235 718.335C580.691 718.092 581.839 717.665 582.745 717.155C583.634 715.884 584.178 714.497 584.512 713.22C585.025 711.253 585.04 709.546 585.044 708.924C585.105 701.228 579.416 696.396 578.523 695.663C574.856 700.213 569.098 702.361 563.869 701.123C559.122 699.999 556.543 696.496 555.842 695.468L531.761 706.24C516.665 709.715 509.203 712.729 509.37 715.283" fill="#141414" fill-rule="nonzero" opacity="1" stroke="none"/>
<path d="M509.37 710.283L509.475 713.642C509.475 713.642 542.081 716.629 553.697 715.057C554.114 715 554.504 714.938 554.864 714.87C565.267 712.892 573.162 714.348 579.235 713.335C580.691 713.092 581.839 712.665 582.745 712.155C585.62 710.54 586.047 708.098 586.047 708.098C586.047 708.098 585.505 708.142 584.512 708.22C574.746 708.984 521.328 712.993 509.37 710.283" fill="#292466" fill-rule="nonzero" opacity="1" stroke="none"/>
<path d="M641.753 660.893C642.175 674.328 642.597 687.764 643.018 701.2C640.435 702.484 636.581 704.053 631.666 704.885C627.008 705.673 623.022 705.523 620.209 705.211C618.542 689.57 616.874 673.929 615.207 658.288C624.056 659.156 632.904 660.025 641.753 660.893" fill="#ffffff" fill-rule="nonzero" opacity="1" stroke="#141414" stroke-linecap="round" stroke-linejoin="round" stroke-width="2"/>
<path d="M574.101 715.283C574.198 716.762 576.857 718.087 582.075 719.258C597.289 718.055 609.298 718.797 618.428 720.057C618.845 720 619.235 719.938 619.595 719.87C629.998 717.892 637.893 719.348 643.966 718.335C645.422 718.092 646.57 717.665 647.476 717.155C648.365 715.884 648.91 714.497 649.243 713.22C649.756 711.253 649.771 709.546 649.775 708.924C649.836 701.228 644.148 696.396 643.254 695.663C639.587 700.213 633.829 702.361 628.6 701.123C623.853 699.999 621.274 696.496 620.573 695.468L596.492 706.24C581.396 709.715 573.934 712.729 574.101 715.283" fill="#141414" fill-rule="nonzero" opacity="1" stroke="none"/>
<path d="M574.101 710.283L574.207 713.642C574.207 713.642 606.812 716.629 618.428 715.057C618.845 715 619.235 714.938 619.595 714.87C629.998 712.892 637.893 714.348 643.966 713.335C645.422 713.092 646.57 712.665 647.476 712.155C650.351 710.54 650.778 708.098 650.778 708.098C650.778 708.098 650.236 708.142 649.243 708.22C639.477 708.984 586.06 712.993 574.101 710.283" fill="#141414" fill-rule="nonzero" opacity="1" stroke="none"/>
<path d="M541.228 378.376C539.635 392.62 537.48 414.638 536.156 441.631C535.011 464.994 535.445 482.646 535.574 490.515C536.035 518.742 536.969 572.205 539.04 682.794C544.288 684.804 552.392 687.219 562.551 687.619C574.677 688.096 584.33 685.491 590.041 683.483C589.334 651.532 588.779 604.436 590.041 551.839C590.982 512.615 592.734 474.635 595.139 437.976C596.095 468.693 597.048 499.411 597.998 530.128C599.573 581.016 601.14 631.905 602.7 682.794C610.278 684.092 619.715 685.093 630.551 684.862C640.318 684.653 648.865 683.493 655.871 682.105C654.999 647.454 654.615 619.277 654.424 600.43C653.922 550.854 652.421 501.286 652.359 451.707C652.35 445.053 652.861 425.86 649.566 400.74L647.168 382.465L541.228 378.376Z" fill="#141414" fill-rule="nonzero" opacity="1" stroke="none"/>
<path d="M607.687 204.968L607.687 243.522C607.687 247.047 604.473 250.046 600.116 250.58C598.489 250.779 596.676 250.844 594.722 250.665C594.468 250.642 594.217 250.615 593.971 250.585C589.651 250.061 586.498 247.035 586.498 243.541L586.498 204.968L607.687 204.968Z" fill="#ffffff" fill-rule="nonzero" opacity="1" stroke="none"/>
<path d="M607.242 206.277L607.242 244.081C607.242 247.197 604.27 249.911 600.329 250.394C598.589 250.608 596.827 250.638 595.096 250.477C594.848 250.455 594.604 250.429 594.366 250.4C590.482 249.928 587.553 247.22 587.553 244.1L587.553 206.277L607.242 206.277ZM597.319 252.079C598.384 252.079 599.452 252.013 600.512 251.883C605.281 251.298 608.742 248.017 608.742 244.081L608.742 205.527C608.742 205.113 608.406 204.777 607.992 204.777L586.803 204.777C586.389 204.777 586.053 205.113 586.053 205.527L586.053 244.1C586.053 247.977 589.549 251.326 594.185 251.889C594.439 251.92 594.697 251.947 594.96 251.971C595.742 252.043 596.53 252.079 597.319 252.079" fill="#141414" fill-rule="nonzero" opacity="1" stroke="none"/>
<path d="M588.756 328.017C588.77 328.405 588.781 328.792 588.796 329.177C588.807 329.459 588.817 329.738 588.825 330.021C589.252 341.437 590.06 352.314 591.144 362.6C591.444 365.441 591.763 368.234 592.104 370.984C592.14 371.3 592.18 371.611 592.22 371.926C592.27 372.35 592.325 372.774 592.379 373.194C593.444 381.521 594.673 389.419 596.002 396.858C606.147 399.133 620.734 401.111 637.915 399.05C638.89 398.937 639.876 398.807 640.868 398.662C649.828 397.361 657.633 395.209 664.118 392.916C663.462 388.818 662.81 384.723 662.155 380.626C662.115 380.379 662.078 380.137 662.039 379.894C660.944 373.046 659.85 366.198 658.756 359.354C658.712 359.075 658.669 358.8 658.626 358.524C657.828 353.546 657.035 348.568 656.238 343.593C656.198 343.343 656.158 343.093 656.118 342.847C655.097 336.444 654.075 330.046 653.053 323.647C652.767 321.847 652.477 320.05 652.191 318.249C652.151 317.992 652.108 317.734 652.068 317.477C650.854 309.869 649.636 302.256 648.419 294.647C647.593 289.481 646.77 284.314 645.944 279.151C645.908 278.912 645.868 278.669 645.828 278.43C644.702 271.361 643.571 264.292 642.441 257.22C642.18 255.578 641.915 253.934 641.654 252.292C640.506 250.905 638.865 249.089 636.716 247.162C636.506 246.974 636.289 246.781 636.068 246.589C632.47 243.484 627.56 240.187 621.231 238.021C617.462 236.727 613.959 236.1 610.966 235.825C610.691 235.796 610.419 235.774 610.151 235.756C609.644 235.716 609.154 235.691 608.683 235.669C608.825 235.941 609.06 236.408 609.318 237.031C609.426 237.285 609.535 237.56 609.64 237.861C610.448 240.122 611.202 243.676 609.886 247.376C607.618 253.76 593.749 241.329 592.035 255.388C591.369 261.185 590.397 268.872 589.908 275.202C589.89 275.437 589.872 275.676 589.854 275.916C589.531 280.176 589.26 284.553 589.046 289.039C589.035 289.296 589.02 289.557 589.013 289.818C588.904 292.118 588.814 294.445 588.738 296.803C588.419 306.724 588.397 317.144 588.756 328.017" fill="#ec2961" fill-rule="nonzero" opacity="1" stroke="none"/>
<path d="M538.956 393.501C543.663 395.515 549.376 397.486 555.989 398.841C556.181 398.885 556.373 398.921 556.565 398.961C556.623 398.972 556.684 398.983 556.742 398.994C562.539 400.135 568.017 400.602 573.036 400.642C573.326 400.649 573.615 400.649 573.898 400.649C581.655 400.642 588.289 399.631 593.304 398.544C593.311 390.696 593.311 382.845 593.304 374.994L593.304 374.881C593.304 374.403 593.304 373.921 593.3 373.443L593.3 372.385C593.296 369.736 593.293 367.084 593.286 364.436C593.264 352.407 593.22 340.381 593.155 328.356C593.155 327.925 593.152 327.494 593.148 327.066C593.101 317.798 593.039 308.533 592.967 299.269C592.945 296.353 592.92 293.436 592.894 290.523C592.894 290.269 592.891 290.015 592.887 289.762C592.855 285.628 592.815 281.494 592.779 277.363C592.775 277.124 592.771 276.885 592.771 276.646C592.71 270.66 592.593 263.575 593.293 257.63C594.006 251.57 593.104 249.967 591.293 249.63C590.279 248.348 584.082 253.453 583.489 249.137C582.782 243.996 584.57 240.051 585.3 238.63C583.552 238.886 581.588 239.31 579.489 240.001C574.305 241.707 570.464 244.335 567.941 246.432C567.065 248.925 566.22 251.428 565.409 253.939C565.333 254.171 565.26 254.399 565.184 254.631C563.315 260.468 561.619 266.352 560.065 272.273C559.999 272.508 559.938 272.74 559.88 272.976C558.365 278.78 556.992 284.62 555.724 290.49C553.46 300.961 551.539 311.519 549.8 322.11C549.757 322.349 549.717 322.592 549.681 322.831C549.351 324.838 549.029 326.849 548.713 328.86C548.673 329.099 548.637 329.338 548.601 329.581C547.565 336.164 546.586 342.762 545.623 349.356C544.735 355.432 543.862 361.501 542.97 367.563C542.934 367.816 542.898 368.066 542.858 368.32C541.623 376.74 540.347 385.142 538.956 393.501" fill="#ec2961" fill-rule="nonzero" opacity="1" stroke="none"/>
<path d="M581.309 189.228C576.211 188.647 573.556 188.351 570.769 186.032C566.314 182.324 566.042 176.589 566.027 176.117C566 175.288 568.985 167.296 574.222 163.726C578.632 160.72 581.929 162.46 586.679 166.335C588.188 165.747 595.199 163.204 603.016 166.467C610.702 169.675 613.79 176.258 614.61 178.061C616.986 183.283 616.579 187.828 616.059 193.64C615.732 197.301 614.985 204.613 609.973 211.377C609.452 212.079 608.989 212.635 608.669 213.006C607.801 213.223 606.932 213.44 606.064 213.657C605.534 212.065 604.826 209.588 604.435 206.491C603.808 201.52 604.563 199.427 604.124 197.605C602.595 191.275 588.588 190.058 581.309 189.228" fill="#141414" fill-rule="nonzero" opacity="1" stroke="none"/>
<path d="M571.864 184.668C573.436 186.684 575.01 187.141 575.772 187.274C576.588 187.415 577.315 187.331 580.007 186.622C583.056 185.82 583.662 185.523 584.567 185.319C588.644 184.403 592.648 186.757 598.988 190.486C600.696 191.49 601.426 192.165 601.992 192.442C602.668 192.773 603.183 193.236 603.574 193.82C604.459 193.07 605.425 192.704 606.286 192.802C607.89 192.984 609.252 194.768 609.648 196.404C610.186 198.623 608.931 200.495 607.855 202.101C607.287 202.947 606.226 204.302 604.441 205.542C604.413 206.088 604.387 206.642 604.364 207.212C604.251 210.07 604.186 211.523 603.785 212.68C602.261 217.069 598.519 219.317 595.478 221.142C592.046 223.203 588.345 225.425 583.814 224.513C581.109 223.968 579.307 222.549 578.378 221.8C573.375 217.767 572.561 211.546 572.219 208.933C571.88 206.338 572.069 204.745 572.219 202.049C572.45 197.911 572.541 192.023 571.864 184.668" fill="#ffffff" fill-rule="nonzero" opacity="1" stroke="none"/>
<path d="M606.012 193.536C606.076 193.536 606.139 193.54 606.201 193.546C607.461 193.69 608.593 195.233 608.92 196.581C609.379 198.479 608.288 200.108 607.232 201.683C606.394 202.934 605.311 204.024 604.013 204.926C603.822 205.059 603.704 205.272 603.692 205.504C603.665 206.053 603.637 206.61 603.615 207.183C603.5 210.078 603.434 211.402 603.076 212.434C601.642 216.566 598.01 218.747 595.092 220.499C591.707 222.532 588.209 224.631 583.962 223.777C581.381 223.258 579.671 221.879 578.849 221.216C574.08 217.371 573.297 211.39 572.963 208.835C572.685 206.712 572.775 205.269 572.898 203.271L572.968 202.09C573.246 197.118 573.184 191.942 572.785 186.676C573.675 187.384 574.641 187.838 575.644 188.012C576.637 188.185 577.487 188.06 580.198 187.347C581.979 186.878 582.955 186.574 583.601 186.373C584.058 186.23 584.37 186.132 584.732 186.051C588.518 185.201 592.315 187.432 598.606 191.131C599.543 191.682 600.186 192.137 600.656 192.469C601.065 192.758 601.361 192.967 601.662 193.115C602.201 193.379 602.623 193.746 602.951 194.237C603.07 194.415 603.259 194.533 603.47 194.562C603.684 194.591 603.897 194.53 604.059 194.392C604.71 193.841 605.41 193.536 606.012 193.536M585.905 225.473C589.722 225.473 592.955 223.532 595.862 221.787C598.99 219.908 602.881 217.572 604.493 212.926C604.94 211.64 605.002 210.078 605.114 207.242C605.131 206.8 605.152 206.368 605.172 205.941C606.49 204.976 607.601 203.826 608.478 202.518C609.598 200.847 610.992 198.767 610.378 196.228C609.929 194.375 608.372 192.284 606.371 192.056C605.508 191.957 604.584 192.215 603.708 192.786C603.316 192.369 602.852 192.027 602.321 191.768C602.129 191.673 601.862 191.484 601.522 191.244C601.031 190.896 600.358 190.42 599.368 189.839C592.984 186.085 588.765 183.607 584.403 184.587C584.003 184.677 583.658 184.784 583.154 184.941C582.484 185.15 581.564 185.436 579.816 185.897C577.236 186.575 576.575 186.65 575.901 186.535C574.668 186.32 573.476 185.515 572.456 184.207C572.251 183.944 571.897 183.849 571.589 183.97C571.279 184.093 571.087 184.405 571.117 184.736C571.662 190.645 571.78 196.455 571.47 202.007L571.401 203.179C571.272 205.26 571.179 206.764 571.476 209.03C571.833 211.763 572.671 218.162 577.908 222.384C578.751 223.063 580.725 224.656 583.666 225.248C584.435 225.403 585.181 225.473 585.905 225.473" fill="#141414" fill-rule="nonzero" opacity="1" stroke="none"/>
<path d="M600.409 187.993C599.422 187.965 598.698 188.91 598.98 189.857C599.407 191.285 599.765 193.288 599.224 195.091C598.639 197.042 598.177 198.92 597.901 200.113C597.732 200.844 598.149 201.58 598.861 201.815C599.605 202.061 600.41 201.672 600.678 200.936C601.987 197.34 605.594 187.66 606.39 187.925C607.055 188.147 603.04 188.067 600.409 187.993" fill="#141414" fill-rule="nonzero" opacity="1" stroke="none"/>
<path d="M687.446 356.489L649.257 330.322C652.251 321.801 656.159 295.568 656.619 291.656C656.673 291.201 656.701 290.954 656.701 290.954C656.701 290.954 656.385 290.676 655.822 290.175C651.817 286.618 635.34 271.783 631.51 265.249C627.14 257.795 614.545 233.632 614.545 233.632C614.545 233.632 668.011 244.428 687.033 266.277C706.055 288.127 703.227 289.155 703.227 305.606C703.227 322.057 694.872 347.295 687.446 356.489" fill="#ec2961" fill-rule="nonzero" opacity="1" stroke="none"/>
</g>
<g opacity="1">
<path d="M537.32 372.161C537.36 371.891 537.396 371.626 537.432 371.356C538.324 364.914 539.197 358.463 540.084 352.006C541.048 344.997 542.027 337.985 543.063 330.988C543.099 330.73 543.135 330.476 543.175 330.221C543.49 328.084 543.813 325.947 544.142 323.814C544.179 323.56 544.218 323.302 544.262 323.047C546.001 311.791 547.922 300.57 550.186 289.441C551.454 283.203 552.827 276.995 554.342 270.826C554.4 270.576 554.461 270.329 554.527 270.079C556.081 263.787 557.776 257.533 559.646 251.329C559.722 251.083 559.795 250.84 559.871 250.594C560.682 247.925 561.28 246.012 562.157 243.363C564.679 241.135 569.854 238.252 575.037 236.438C577.136 235.704 583.222 234.39 584.97 234.117C584.24 235.628 584.741 244.651 585.754 246.013C587.566 246.372 588.468 248.076 587.754 254.516C587.054 260.834 587.171 268.365 587.233 274.727C587.233 274.981 587.237 275.235 587.24 275.489C587.276 279.879 587.316 284.273 587.349 288.667C587.352 288.937 587.356 289.206 587.356 289.476C587.382 292.572 587.407 295.672 587.429 298.772C587.501 308.618 587.563 318.465 587.61 328.315C587.614 328.77 587.617 329.228 587.617 329.686C587.682 342.467 587.726 355.248 587.747 368.033C587.755 370.848 587.758 373.667 587.762 376.482L587.762 377.606C587.766 378.114 587.766 378.627 587.766 379.135L587.766 379.254C587.773 387.599 587.773 395.944 587.766 404.285C582.751 405.44 576.117 406.514 568.36 406.522C568.077 406.522 567.787 406.522 567.497 406.514C562.479 406.472 557.001 405.975 551.204 404.762C551.146 404.751 551.085 404.739 551.026 404.728C550.835 404.685 550.642 404.647 550.45 404.6C543.838 403.16 538.124 401.066 533.418 398.924C534.809 390.04 536.084 381.11 537.32 372.161M592.086 329.172C592.075 329.584 592.06 329.996 592.048 330.404C592.04 330.705 592.032 331.001 592.021 331.301C591.681 343.438 591.757 355.03 592.147 366.016C592.257 369.049 592.387 372.034 592.543 374.975C592.558 375.312 592.576 375.645 592.595 375.982C592.617 376.435 592.643 376.888 592.669 377.338C593.173 386.243 593.957 398.539 594.785 406.522C604.754 409.659 619.086 408.965 636.367 408.004C637.347 407.955 638.339 407.886 639.34 407.804C648.367 407.063 656.298 405.338 662.923 403.369C662.544 398.976 662.168 394.588 661.788 390.196C661.765 389.932 661.745 389.672 661.722 389.411C661.09 382.072 660.458 374.732 659.825 367.396C659.8 367.097 659.776 366.802 659.751 366.507C659.29 361.171 658.832 355.835 658.37 350.503C658.348 350.235 658.325 349.967 658.301 349.703C657.712 342.841 657.122 335.983 656.532 329.125C656.367 327.195 656.198 325.268 656.034 323.338C656.011 323.063 655.985 322.787 655.963 322.511C655.262 314.356 654.558 306.197 653.854 298.041C653.377 292.504 652.903 286.966 652.425 281.432C652.405 281.176 652.382 280.916 652.358 280.659C651.708 273.083 651.055 265.506 650.402 257.926C650.252 256.166 649.37 246.54 649.219 244.781C648.167 243.227 636.971 238.081 630.528 236.053C626.231 234.7 617.315 232.905 614.348 232.399C614.075 232.349 613.805 232.307 613.539 232.268C613.036 232.19 612.549 232.128 612.081 232.072C612.204 232.37 612.407 232.882 612.622 233.561C612.714 233.838 612.804 234.138 612.888 234.464C613.543 236.919 602.398 239.285 599.745 254.072C598.69 260.172 597.693 266.569 596.781 273.247C596.747 273.495 596.713 273.747 596.679 274C596.071 278.495 595.506 283.117 594.992 287.858C594.963 288.13 594.932 288.406 594.907 288.682C594.644 291.114 594.397 293.574 594.163 296.07C593.179 306.567 592.458 317.616 592.086 329.172" fill="#00b6f2" fill-rule="nonzero" opacity="1" stroke="none"/>
<path d="M586.905 315.769C577.8 315.769 558.674 312.336 546.491 309.953C547.125 306.248 547.777 302.547 548.471 298.857C560.731 301.21 578.501 304.302 587.187 304.302C587.249 304.302 587.316 304.301 587.379 304.301C587.405 308.122 587.426 311.944 587.449 315.765C587.266 315.767 587.08 315.769 586.905 315.769" fill="#ffffff" fill-rule="nonzero" opacity="1" stroke="none"/>
<path d="M592.689 315.569C592.919 311.673 593.182 307.834 593.486 304.069C610.029 303.058 640.393 298.991 653.609 297.156C653.665 297.801 653.72 298.445 653.776 299.09C654.046 302.221 654.315 305.352 654.585 308.484C641.779 310.262 609.594 314.589 592.689 315.569" fill="#ffffff" fill-rule="nonzero" opacity="1" stroke="none"/>
<path d="M542.699 334.014C554.428 336.352 576.777 340.525 586.867 340.525C587.094 340.525 587.332 340.523 587.572 340.52C587.588 344.341 587.599 348.162 587.611 351.982C587.257 351.988 586.912 351.992 586.585 351.992C576.079 351.992 552.228 347.422 541.103 345.167C541.624 341.447 542.155 337.729 542.699 334.014" fill="#ffffff" fill-rule="nonzero" opacity="1" stroke="none"/>
<path d="M591.779 340.372C609.513 339.433 645.96 334.416 656.688 332.904C657.013 336.679 657.337 340.455 657.662 344.231C648.408 345.537 610.234 350.825 591.746 351.826C591.718 348.068 591.727 344.251 591.779 340.372" fill="#ffffff" fill-rule="nonzero" opacity="1" stroke="none"/>
<path d="M593.596 250.722C593.118 250.05 592.376 249.032 591.422 247.824C589.477 245.359 589.147 245.267 588.161 243.838C587.174 242.406 586.059 240.754 585.625 238.403C585.319 236.743 585.462 235.33 585.625 234.418C584.504 234.831 583.794 235.389 583.361 235.806C582.624 236.517 582.025 237.465 580.552 242.389C580.207 243.546 580.033 244.125 579.971 244.392C578.997 248.558 582.734 253.84 584.9 256.519C587.194 249.393 588.48 247.709 589.248 247.824C589.732 247.896 589.879 248.663 591.06 249.997C591.967 251.023 592.898 251.72 593.596 252.171L593.596 250.722Z" fill="#ec2961" fill-rule="nonzero" opacity="1" stroke="none"/>
<path d="M589.123 247.063C588.188 247.063 586.954 248.041 584.627 254.951C581.492 250.784 580.102 247.127 580.702 244.564C580.761 244.309 580.924 243.767 581.244 242.696C582.727 237.734 583.293 236.914 583.881 236.347C584.132 236.105 584.411 235.886 584.718 235.692C584.659 236.652 584.715 237.605 584.888 238.54C585.359 241.097 586.571 242.853 587.544 244.264C588.085 245.049 588.441 245.453 588.934 246.012C589.373 246.51 589.92 247.131 590.833 248.289C591.323 248.909 591.807 249.543 592.28 250.184C592.05 249.964 591.83 249.737 591.621 249.501C591.122 248.936 590.827 248.491 590.591 248.133C590.249 247.617 589.955 247.171 589.359 247.082C589.282 247.07 589.204 247.063 589.123 247.063M584.901 257.27C584.946 257.27 584.993 257.265 585.038 257.257C585.309 257.206 585.53 257.011 585.615 256.749C587.682 250.323 588.753 248.934 589.118 248.634C589.184 248.725 589.267 248.851 589.34 248.96C589.589 249.336 589.929 249.852 590.498 250.495C591.276 251.373 592.181 252.149 593.189 252.801C593.419 252.95 593.714 252.961 593.954 252.83C594.196 252.699 594.346 252.446 594.346 252.171L594.346 250.722C594.346 250.566 594.297 250.414 594.207 250.287C593.502 249.297 592.763 248.312 592.011 247.359C591.072 246.169 590.511 245.532 590.059 245.021C589.584 244.481 589.27 244.124 588.779 243.413C587.887 242.119 586.776 240.509 586.363 238.267C586.139 237.055 586.14 235.804 586.364 234.55C586.411 234.285 586.313 234.016 586.107 233.843C585.901 233.67 585.619 233.621 585.366 233.714C584.38 234.078 583.531 234.6 582.84 235.267C581.927 236.148 581.276 237.354 579.834 242.174C579.472 243.388 579.303 243.956 579.241 244.222C578.268 248.382 581.465 253.462 584.318 256.991C584.461 257.169 584.677 257.27 584.901 257.27" fill="#141414" fill-rule="nonzero" opacity="1" stroke="none"/>
<path d="M596.467 251.872C596.558 251.582 598.127 246.744 600.09 246.799C601.994 246.853 603.484 251.483 604.076 253.321C604.443 254.462 604.663 255.461 604.8 256.22C606.127 255.587 607.656 254.669 609.148 253.321C613.967 248.97 615.025 243.2 615.308 241.002C614.848 239.547 614.258 237.961 613.496 236.292C612.239 233.54 610.826 231.248 609.511 229.408C609.354 234.492 607.726 237.248 606.25 238.828C603.832 241.417 601.295 241.418 599.003 244.263C596.988 246.765 596.538 249.759 596.467 251.872" fill="#ec2961" fill-rule="nonzero" opacity="1" stroke="none"/>
<path d="M614.542 241.07C614.16 243.861 612.886 248.936 608.646 252.765C607.647 253.666 606.539 254.45 605.339 255.104C605.186 254.424 605.002 253.751 604.79 253.092C603.68 249.644 602.257 246.111 600.111 246.05C599.435 246.019 598.811 246.375 598.269 246.908C598.622 246.112 599.062 245.386 599.587 244.734C600.707 243.343 601.896 242.685 603.155 241.988C604.346 241.328 605.578 240.647 606.798 239.34C608.58 237.432 609.685 234.838 610.093 231.609C611.116 233.21 612.028 234.883 612.814 236.604C613.474 238.048 614.055 239.55 614.542 241.07M604.8 256.97C604.911 256.97 605.021 256.945 605.123 256.897C606.787 256.104 608.31 255.088 609.65 253.878C614.334 249.65 615.671 244.056 616.051 241.098C616.065 240.99 616.056 240.88 616.023 240.776C615.507 239.145 614.887 237.531 614.178 235.981C613.059 233.529 611.693 231.171 610.12 228.972C609.933 228.71 609.6 228.598 609.292 228.691C608.984 228.784 608.771 229.064 608.761 229.385C608.642 233.266 607.612 236.271 605.702 238.316C604.644 239.449 603.567 240.045 602.428 240.676C601.099 241.412 599.724 242.173 598.419 243.793C596.735 245.883 595.826 248.593 595.717 251.847C595.705 252.221 595.97 252.548 596.34 252.611C596.706 252.674 597.068 252.456 597.182 252.098C597.878 249.903 599.171 247.549 600.055 247.549L600.069 247.549C600.582 247.564 601.692 248.362 603.362 253.551C603.656 254.465 603.891 255.407 604.062 256.353C604.104 256.583 604.25 256.781 604.458 256.887C604.565 256.943 604.683 256.97 604.8 256.97" fill="#141414" fill-rule="nonzero" opacity="1" stroke="none"/>
<path d="M696.407 338.876C696.407 338.876 696.15 344.531 688.438 357.127C686.77 359.851 684.431 363.404 681.747 367.298C681.516 367.64 681.28 367.982 681.041 368.329C675.391 376.528 664.869 395.216 655.022 400.054C654.124 400.495 652.59 401.136 651.166 400.568C649.063 399.728 647.808 396.493 648.467 393.854C648.726 392.817 649.235 392.052 649.619 391.576C649.547 391.648 648.729 392.455 647.519 393.494L647.513 393.499C647.465 393.54 647.416 393.581 647.367 393.625L647.364 393.628C646.627 394.255 645.758 394.954 644.822 395.625C641.964 397.681 638.514 399.463 636.514 397.997C633.746 395.967 633.628 392.877 635.589 389.584L635.592 389.579C636.36 388.289 637.45 386.965 638.825 385.662C638.771 385.695 638.057 386.147 637.016 386.677L637.01 386.682C633.983 389.206 630.354 389.424 628.623 387.819C626.942 386.26 627.403 383.308 627.518 382.574C627.941 379.861 629.654 378.183 630.258 377.642L631.373 375.634C631.055 375.821 628.811 377.094 626.489 376.148C623.915 375.099 623.14 372.093 623.222 370.225C623.279 368.944 623.721 367.977 623.919 367.665C627.299 362.355 650.619 343.449 653.454 341.161C653.639 341.012 653.737 340.932 653.737 340.932L653.801 340.174L655.022 326.023L696.407 338.876Z" fill="#ffffff" fill-rule="nonzero" opacity="1" stroke="none"/>
<path d="M695.582 339.405C695.293 341.11 693.939 346.704 687.798 356.735C686.146 359.433 683.84 362.939 681.129 366.872L680.422 367.903C679.361 369.444 678.161 371.303 676.77 373.456C671.093 382.249 662.512 395.538 654.691 399.38C653.829 399.804 652.557 400.313 651.444 399.871C649.711 399.179 648.618 396.343 649.194 394.035C649.372 393.326 649.711 392.656 650.202 392.048C650.453 391.738 650.416 391.286 650.121 391.019C649.825 390.754 649.372 390.764 649.09 391.044C649.056 391.078 648.241 391.886 647.03 392.925L646.868 393.065C646.865 393.068 646.861 393.071 646.858 393.074C646.011 393.792 645.179 394.446 644.385 395.015C640.912 397.514 638.275 398.356 636.958 397.392C633.997 395.221 634.93 392.156 636.233 389.968C636.975 388.722 638.019 387.458 639.341 386.206C639.62 385.941 639.654 385.508 639.419 385.203C639.183 384.898 638.757 384.821 638.429 385.024C638.185 385.177 637.55 385.563 636.675 386.009C636.604 386.044 636.54 386.091 636.485 386.147C633.716 388.452 630.5 388.534 629.132 387.269C628.5 386.682 627.834 385.411 628.258 382.692C628.613 380.416 629.977 378.901 630.758 378.199C630.82 378.144 630.872 378.078 630.913 378.006L632.029 375.998C632.193 375.703 632.139 375.334 631.897 375.097C631.654 374.861 631.285 374.816 630.993 374.988C630.625 375.203 628.697 376.236 626.772 375.454C624.417 374.494 623.91 371.635 623.971 370.258C624.021 369.132 624.407 368.295 624.551 368.068C627.258 363.815 644.289 349.52 653.925 341.744L654.21 341.514C654.368 341.385 654.466 341.198 654.483 340.996L655.688 327.016L695.582 339.405ZM652.37 401.539C653.7 401.539 654.88 400.959 655.352 400.726C663.547 396.701 671.918 383.736 678.031 374.269C679.414 372.127 680.609 370.277 681.658 368.754L682.368 367.718C685.09 363.768 687.412 360.239 689.078 357.518C696.801 344.903 697.145 339.149 697.156 338.91C697.171 338.569 696.955 338.26 696.629 338.159L655.244 325.307C655.026 325.24 654.791 325.274 654.603 325.401C654.414 325.528 654.294 325.733 654.274 325.959L652.983 340.576C650.308 342.736 626.747 361.824 623.286 367.262C623.013 367.692 622.535 368.792 622.473 370.192C622.365 372.618 623.487 375.735 626.206 376.843C627.479 377.362 628.713 377.311 629.709 377.085L629.662 377.17C628.72 378.039 627.189 379.816 626.776 382.459C626.25 385.832 627.213 387.534 628.112 388.369C629.767 389.903 632.612 389.957 635.261 388.692C635.151 388.86 635.047 389.028 634.947 389.195C632.685 392.993 633.096 396.42 636.071 398.602C638.009 400.022 641.1 399.225 645.26 396.234C646.014 395.693 646.8 395.08 647.598 394.411C647.213 397.289 648.639 400.366 650.888 401.264C651.384 401.462 651.887 401.539 652.37 401.539" fill="#141414" fill-rule="nonzero" opacity="1" stroke="none"/>
<path d="M681.747 368.048C681.807 368.048 681.868 368.041 681.929 368.026C682.331 367.926 682.576 367.518 682.475 367.116C680.008 357.242 669.102 341.926 653.526 340.414C653.123 340.371 652.748 340.676 652.707 341.088C652.667 341.501 652.969 341.867 653.382 341.907C667.591 343.287 678.563 357.645 681.02 367.48C681.105 367.82 681.411 368.048 681.747 368.048" fill="#141414" fill-rule="nonzero" opacity="1" stroke="none"/>
<path d="M579.876 212.668C575.987 213.966 575.246 216.795 575.246 216.795C575.246 216.795 577.753 216.927 579.876 215.8C579.876 215.8 584.712 217.634 590.428 215.8C590.428 215.8 587.878 212.46 581.756 212.859L579.876 212.668Z" fill="#141414" fill-rule="nonzero" opacity="1" stroke="none"/>
<path d="M623.004 195.802C615.946 193.135 608.04 190.558 599.33 188.346C586.391 185.056 574.498 183.286 564.16 182.384C568.423 167.135 578.474 156.26 589.805 153.79C590.27 153.688 590.736 153.6 591.205 153.528C591.227 153.526 591.246 153.519 591.268 153.517C591.95 153.413 592.639 153.338 593.332 153.297C600.821 152.843 606.488 156.224 608.165 157.257C612.703 160.05 616.318 164.156 618.884 169.151C619.435 170.213 619.935 171.319 620.384 172.461C620.453 172.633 620.519 172.804 620.584 172.976L620.588 172.979C623.121 179.667 624.006 187.549 623.004 195.802" fill="#ec2961" fill-rule="nonzero" opacity="1" stroke="none"/>
<path d="M623.004 195.802C615.946 193.135 608.04 190.558 599.33 188.346C586.391 185.056 574.498 183.286 564.16 182.384C568.423 167.135 578.474 156.26 589.805 153.79C590.27 153.688 590.736 153.6 591.205 153.528C591.227 153.526 591.246 153.519 591.268 153.517C591.95 153.413 592.639 153.338 593.332 153.297C600.821 152.843 606.488 156.224 608.165 157.257C612.703 160.05 616.318 164.156 618.884 169.151C619.435 170.213 619.935 171.319 620.384 172.461C620.453 172.633 620.519 172.804 620.584 172.976L620.588 172.979C623.121 179.667 624.006 187.549 623.004 195.802" fill="#ec2961" fill-rule="nonzero" opacity="1" stroke="none"/>
<path d="M623.004 195.802C615.946 193.135 608.04 190.558 599.33 188.346C586.391 185.056 574.498 183.286 564.16 182.384C568.423 167.135 578.474 156.26 589.805 153.79C590.27 153.688 590.736 153.6 591.205 153.528C591.227 153.526 591.246 153.519 591.268 153.517C591.95 153.413 592.639 153.338 593.332 153.297C600.821 152.843 606.488 156.224 608.165 157.257C612.703 160.05 616.318 164.156 618.884 169.151C619.435 170.213 619.935 171.319 620.384 172.461C620.453 172.633 620.519 172.804 620.584 172.976L620.588 172.979C623.121 179.667 624.006 187.549 623.004 195.802" fill="#00b6f2" fill-rule="nonzero" opacity="1" stroke="none"/>
<path d="M598.909 183.24C586.982 180.137 575.904 178.169 565.999 176.933C562.94 176.451 560.738 177.972 560.634 179.255C560.544 180.366 561.984 181.807 564.159 182.382C574.497 183.286 586.39 185.057 599.33 188.345C608.039 190.558 615.948 193.134 623.003 195.8C624.288 195.839 625.384 194.928 625.574 193.756C625.786 192.446 624.814 191.113 623.379 190.925C616.027 188.208 607.854 185.567 598.909 183.24" fill="#141414" fill-rule="nonzero" opacity="1" stroke="none"/>
<path d="M620.888 173.431C614.8 161.526 610.139 160.758 606.026 160.149C600.729 159.364 593.64 168.985 590.812 171.285C588.523 173.147 583.003 175.94 579.443 173.693C579.228 173.558 577.871 172.729 577.323 171.194C575.486 166.044 583.545 155.322 593.633 153.753C600.368 152.705 605.818 156.082 608.469 157.713C614.121 161.19 618.339 166.708 620.888 173.431" fill="#00b6f2" fill-rule="nonzero" opacity="1" stroke="#141414" stroke-linecap="round" stroke-linejoin="round" stroke-width="2"/>
<path d="M605.118 206.711C605.214 206.711 605.311 206.693 605.405 206.654C606.863 206.049 607.963 203.446 607.627 201.399C607.363 199.79 606.265 198.803 604.617 198.691C604.207 198.669 603.846 198.976 603.818 199.39C603.79 199.803 604.103 200.16 604.516 200.189C605.463 200.252 605.996 200.728 606.147 201.642C606.391 203.129 605.504 204.989 604.83 205.268C604.448 205.427 604.266 205.866 604.425 206.248C604.544 206.537 604.824 206.711 605.118 206.711" fill="#141414" fill-rule="nonzero" opacity="1" stroke="none"/>
<path d="M631.373 376.384C631.559 376.384 631.745 376.315 631.891 376.176L649.791 359.093C650.091 358.807 650.102 358.332 649.816 358.033C649.53 357.733 649.055 357.723 648.756 358.008L630.855 375.091C630.556 375.377 630.544 375.852 630.831 376.151C630.978 376.306 631.175 376.384 631.373 376.384" fill="#141414" fill-rule="nonzero" opacity="1" stroke="none"/>
<path d="M638.825 386.411C639.014 386.411 639.202 386.341 639.348 386.199L655.909 370.108C656.206 369.819 656.213 369.344 655.925 369.047C655.636 368.75 655.16 368.744 654.864 369.032L638.303 385.123C638.005 385.412 637.998 385.887 638.287 386.184C638.434 386.335 638.63 386.411 638.825 386.411" fill="#141414" fill-rule="nonzero" opacity="1" stroke="none"/>
<path d="M649.618 392.326C649.833 392.326 650.046 392.234 650.195 392.056L660.17 380.093C660.435 379.774 660.392 379.302 660.075 379.036C659.755 378.771 659.283 378.814 659.018 379.132L649.042 391.096C648.777 391.414 648.82 391.887 649.138 392.152C649.279 392.269 649.449 392.326 649.618 392.326" fill="#141414" fill-rule="nonzero" opacity="1" stroke="none"/>
<path d="M591.335 226.371C590.057 227.946 587.699 228.368 586.732 228.541C586.229 228.631 584.784 228.853 583.001 228.496C580.446 227.982 578.745 226.641 577.87 225.933C577.801 225.878 577.733 225.82 577.664 225.759C577.181 225.349 575.295 223.653 575.01 220.852C574.946 220.227 574.702 217.827 576.282 216.108C577.605 214.668 579.442 214.537 581.414 214.397C583.894 214.221 586.627 214.027 588.94 215.766C592.224 218.235 593.488 223.719 591.335 226.371" fill="#141414" fill-rule="nonzero" opacity="1" stroke="none"/>
<path d="M588.349 217.626C588.398 218.138 588.418 219.096 587.987 220.162C587.816 220.582 587.219 222.058 585.813 222.698C583.602 223.706 581.093 221.876 580.447 221.406C579.22 220.511 578.522 219.448 578.167 218.81L578.167 218.8C579.08 219.111 580.331 219.416 581.827 219.438C584.929 219.483 587.26 218.285 588.349 217.626" fill="#ffffff" fill-rule="nonzero" opacity="1" stroke="none"/>
<path d="M579.958 213.908C580.102 213.908 580.191 213.902 580.208 213.9C580.621 213.868 580.93 213.507 580.898 213.094C580.865 212.681 580.522 212.365 580.091 212.405C580.083 212.405 578.789 212.488 578.058 211.806C577.709 211.482 577.54 211.023 577.54 210.405C577.54 208.486 579.903 208.349 580.173 208.34C580.576 208.326 580.899 207.995 580.899 207.591L580.899 198.691C580.899 198.277 580.564 197.941 580.149 197.941C579.735 197.941 579.399 198.277 579.399 198.691L579.399 206.917C577.954 207.171 576.04 208.096 576.04 210.405C576.04 211.452 576.378 212.296 577.044 212.912C578.014 213.809 579.396 213.908 579.958 213.908" fill="#141414" fill-rule="nonzero" opacity="1" stroke="none"/>
<path d="M588.541 201.915C588.541 203.52 587.886 204.822 587.077 204.822C586.269 204.822 585.613 203.52 585.613 201.915C585.613 200.309 586.269 199.008 587.077 199.008C587.886 199.008 588.541 200.309 588.541 201.915" fill="#141414" fill-rule="nonzero" opacity="1" stroke="none"/>
<path d="M576.179 201.408C576.179 203.013 575.524 204.315 574.715 204.315C573.907 204.315 573.251 203.013 573.251 201.408C573.251 199.802 573.907 198.501 574.715 198.501C575.524 198.501 576.179 199.802 576.179 201.408" fill="#141414" fill-rule="nonzero" opacity="1" stroke="none"/>
<path d="M585.914 193.341C586.38 192.82 587.219 192.315 588.631 192.687C589.654 192.956 591.724 195.12 592.136 195.862C592.549 196.604 591.93 196.852 591.147 196.357C590.363 195.862 588.914 194.981 588.054 194.872C587.145 194.758 585.901 194.927 585.694 194.478C585.488 194.03 585.721 193.557 585.914 193.341" fill="#141414" fill-rule="nonzero" opacity="1" stroke="none"/>
<path d="M576.556 193.197C576.139 192.636 575.349 192.057 573.909 192.299C572.867 192.475 570.609 194.442 570.131 195.144C569.653 195.846 570.246 196.148 571.072 195.727C571.897 195.305 573.42 194.558 574.286 194.528C575.202 194.497 576.426 194.778 576.672 194.35C576.918 193.921 576.729 193.429 576.556 193.197" fill="#141414" fill-rule="nonzero" opacity="1" stroke="none"/>
<path d="M701.702 319.422C701.702 335.873 693.347 361.111 685.921 370.305L647.732 344.138C650.727 335.617 654.634 309.384 655.094 305.472L701.702 319.422Z" fill="#ec2961" fill-rule="nonzero" opacity="1" stroke="none"/>
</g>
</g>
<g opacity="1">
<path d="M57.3019 704.341L136.914 704.341C142.296 704.341 145.865 694.258 143.614 685.418L140.039 671.392L135.614 654.032L127.311 621.437L122.885 604.077L103.808 529.213C101.172 518.871 93.0439 518.871 90.4079 529.213L71.3309 604.077L66.9049 621.437L58.6019 654.032L54.1769 671.392L50.6019 685.418C48.3509 694.258 51.9199 704.341 57.3019 704.341" fill="#ec2961" fill-rule="nonzero" opacity="1" stroke="none"/>
<path d="M37.0224 708.084L157.193 708.084L157.193 689.517L37.0224 689.517L37.0224 708.084Z" fill="#ec2961" fill-rule="nonzero" opacity="1" stroke="none"/>
<path d="M37.0224 708.084L157.193 708.084L157.193 689.517L37.0224 689.517L37.0224 708.084Z" fill="#ec2961" fill-rule="nonzero" opacity="1" stroke="none"/>
<path d="M37.0224 708.084L157.193 708.084L157.193 689.517L37.0224 689.517L37.0224 708.084Z" fill="#ec2961" fill-rule="nonzero" opacity="1" stroke="none"/>
<path d="M66.9052 621.437L127.31 621.437L122.885 604.077L71.3302 604.077L66.9052 621.437Z" fill="#ffffff" fill-rule="nonzero" opacity="1" stroke="none"/>
<path d="M54.1765 671.392L140.039 671.392L135.614 654.032L58.6015 654.032L54.1765 671.392Z" fill="#ffffff" fill-rule="nonzero" opacity="1" stroke="none"/>
</g>
</g>
</svg>
