<?xml version="1.0" encoding="UTF-8" standalone="no"?>
<!DOCTYPE svg PUBLIC "-//W3C//DTD SVG 1.1//EN" "http://www.w3.org/Graphics/SVG/1.1/DTD/svg11.dtd">
<!-- Created with Vectornator (http://vectornator.io/) -->
<svg height="100%" stroke-miterlimit="10" style="fill-rule:nonzero;clip-rule:evenodd;stroke-linecap:round;stroke-linejoin:round;" version="1.1" viewBox="0 0 771 771" width="100%" xml:space="preserve" xmlns="http://www.w3.org/2000/svg" xmlns:xlink="http://www.w3.org/1999/xlink">
<defs>
<path d="M443.52 232.159L443.52 250.259C443.52 250.259 450.053 248.673 450.053 260.019C450.053 271.365 439.677 269.127 439.677 269.127L439.677 269.972C439.677 274.672 437.711 278.889 434.566 282.154C435.741 288.859 437.047 294.938 436.411 296.834C431.212 312.331 408.684 302.969 410.356 298.064C411.272 295.376 410.992 290.32 410.664 286.535C403.972 283.52 399.327 277.273 399.327 269.972L399.327 232.159L443.52 232.159Z" id="Fill"/>
<path d="M611.607 274.661C611.908 274.726 612.197 274.9 612.414 275.122C613.576 276.305 612.823 277.882 612.453 279.311C611.457 283.155 610.387 287.448 608.495 290.993C607.789 292.314 606.866 293.457 605.805 294.452C605.796 294.512 605.776 294.545 605.766 294.605C607.415 293.598 608.875 292.278 610.339 290.493C612.918 287.354 614.853 284.753 619.024 283.884C619.67 283.751 620.271 284.101 620.561 284.652C621.336 286.119 620.168 287.453 619.408 288.726C617.365 292.145 615.152 295.992 612.337 298.871C609.908 301.355 606.556 302.982 603.038 303.828C603.028 303.853 603.009 303.882 602.999 303.905C606.194 303.62 608.751 302.495 611.607 300.331C614.849 297.878 617.314 295.778 621.56 295.912C622.217 295.933 622.716 296.461 622.867 297.065C623.269 298.677 621.868 299.655 620.83 300.715C618.041 303.568 614.979 306.793 611.569 308.939C608.788 310.687 605.271 311.744 601.77 312.052C602.377 312.043 602.995 312.034 603.653 311.975C607.687 311.612 610.885 311.134 614.374 313.512C614.913 313.879 615.033 314.61 614.835 315.203C614.308 316.793 612.585 316.889 611.146 317.24C607.277 318.184 602.973 319.267 598.964 319.276C597.936 319.279 595.688 319.04 593.892 318.931C588.897 330.295 569.91 374.963 560.766 385.412C557.69 388.928 554.179 390.836 550.698 391.599C548.844 392.344 546.807 392.757 544.511 392.368C534.034 390.59 476.91 343.448 471.996 336.685C463.123 324.471 475.133 301.252 491.94 309.477C503.163 314.967 530.407 343.308 544.741 358.282C556.269 339.887 573.084 314.568 577.367 307.325C574.636 296.458 580.698 289.535 582.786 286.689C585.414 283.107 590.644 281.238 594.391 279.157C595.219 278.698 596.262 279.299 596.428 280.156C597.521 285.823 591.74 287.012 589.011 290.686C590.73 290.757 594.278 291.352 598.388 291.031C601.103 289.172 602.804 286.914 604.229 283.576C605.819 279.85 606.916 276.784 610.685 274.776C610.976 274.621 611.306 274.595 611.607 274.661Z" id="Fill_2"/>
<path d="M239.925 280.809C244.175 281.357 249.725 281.179 253.49 283.538C256.108 285.176 262.742 288.549 265.365 296.796C271.791 302.664 299.765 325.578 317.128 340.72C338.854 328.106 377.347 309.223 383.495 307.748C398.172 304.227 415.013 324.191 400.98 336.569C389.933 346.317 335.751 366.707 324.084 371.309C323.779 371.439 323.478 371.543 323.161 371.655C323.128 371.668 322.963 371.757 322.931 371.77C322.442 371.965 321.93 371.91 321.432 372.039C320.462 372.266 319.515 372.533 318.473 372.577C317.917 372.588 317.375 372.479 316.821 372.423C313.893 372.265 310.817 371.521 307.675 369.58C296.034 362.389 265.819 326.651 257.141 316.586C254.63 317.88 251.915 319.229 250.531 319.776C246.803 321.25 242.37 321.797 238.426 322.351C236.96 322.556 235.313 323.133 234.237 321.851C233.833 321.372 233.72 320.663 234.084 320.122C236.447 316.623 239.615 315.895 243.499 314.742C244.131 314.554 244.659 314.305 245.228 314.089C241.86 315.098 238.235 315.416 235.006 314.819C231.045 314.086 227.008 312.251 223.362 310.63C222.006 310.027 220.277 309.626 220.057 307.978C219.974 307.361 220.262 306.665 220.864 306.403C224.761 304.708 227.859 305.781 231.778 306.864C235.232 307.817 238.003 307.894 241.078 306.979C241.059 306.96 241.059 306.922 241.039 306.902C237.458 307.416 233.725 307.16 230.548 305.75C226.868 304.114 223.375 301.371 220.211 298.948C219.035 298.049 217.498 297.253 217.675 295.604C217.74 294.986 218.14 294.412 218.789 294.298C222.985 293.564 225.762 295.292 229.319 297.257C231.34 298.372 233.178 299.045 235.083 299.37C235.051 299.318 234.998 299.27 234.968 299.217C233.615 298.685 232.345 297.995 231.202 297.026C228.132 294.433 225.555 290.813 223.208 287.611C222.337 286.42 221.067 285.258 221.71 283.73C221.949 283.156 222.513 282.695 223.17 282.769C227.414 283.24 229.575 285.656 232.431 288.534C234.989 291.107 237.407 292.576 240.617 293.299C244.554 292.079 247.616 290.231 249.186 289.533C245.293 287.127 239.505 288.17 238.426 282.5C238.263 281.643 238.987 280.689 239.925 280.809Z" id="Fill_3"/>
<filter color-interpolation-filters="sRGB" filterUnits="userSpaceOnUse" height="22.7721" id="Filter" width="32.2335" x="233.006" y="278.471">
<feDropShadow dx="1.22465e-16" dy="-2" flood-color="#141414" flood-opacity="1" in="SourceGraphic" result="Shadow" stdDeviation="0"/>
</filter>
<filter color-interpolation-filters="sRGB" filterUnits="userSpaceOnUse" height="29.8441" id="Filter_2" width="25.8142" x="576.633" y="276.023">
<feDropShadow dx="1.22465e-16" dy="-2" flood-color="#141414" flood-opacity="1" in="SourceGraphic" result="Shadow" stdDeviation="0"/>
</filter>
</defs>
<g id="conflict">
<g opacity="1">
<g opacity="1">
<g opacity="1">
<use fill="#ffffff" fill-rule="nonzero" stroke="none" xlink:href="#Fill"/>
<mask height="77.221" id="StrokeMask" maskUnits="userSpaceOnUse" width="54.7259" x="397.327" y="230.159">
<rect fill="#ffffff" height="77.221" stroke="none" width="54.7259" x="397.327" y="230.159"/>
<use fill="#000000" fill-rule="evenodd" stroke="none" xlink:href="#Fill"/>
</mask>
<use fill="none" mask="url(#StrokeMask)" stroke="#141414" stroke-linecap="round" stroke-linejoin="round" stroke-width="4" xlink:href="#Fill"/>
</g>
<path d="M630.552 333.078C636.245 333.078 640.878 337.711 640.878 343.403L640.878 732.73C640.878 738.423 636.245 743.055 630.552 743.055L367.506 743.055C361.813 743.055 357.182 738.423 357.182 732.73L357.182 343.403C357.182 337.711 361.813 333.078 367.506 333.078L630.552 333.078ZM367.506 745.515L630.552 745.515C637.602 745.515 643.337 739.779 643.337 732.73L643.337 343.403C643.337 336.354 637.602 330.619 630.552 330.619L367.506 330.619C360.458 330.619 354.722 336.354 354.722 343.403L354.722 732.73C354.722 739.779 360.458 745.515 367.506 745.515" fill="#dbdbdb" fill-rule="nonzero" opacity="1" stroke="none"/>
<path d="M589.174 653.541C595.001 653.541 599.741 658.281 599.741 664.108L599.741 712.622C599.741 718.448 595.001 723.19 589.174 723.19L380.522 723.19C374.694 723.19 369.953 718.448 369.953 712.622L369.953 664.108C369.953 658.281 374.694 653.541 380.522 653.541L589.174 653.541ZM380.522 725.65L589.174 725.65C596.357 725.65 602.201 719.806 602.201 712.622L602.201 664.108C602.201 656.925 596.357 651.082 589.174 651.082L380.522 651.082C373.338 651.082 367.494 656.925 367.494 664.108L367.494 712.622C367.494 719.806 373.338 725.65 380.522 725.65" fill="#dbdbdb" fill-rule="nonzero" opacity="1" stroke="none"/>
<path d="M601.471 553.777C607.298 553.777 612.038 558.516 612.038 564.344L612.038 612.857C612.038 618.684 607.298 623.426 601.471 623.426L392.819 623.426C386.991 623.426 382.251 618.684 382.251 612.857L382.251 564.344C382.251 558.516 386.991 553.777 392.819 553.777L601.471 553.777ZM392.819 625.885L601.471 625.885C608.654 625.885 614.498 620.041 614.498 612.857L614.498 564.344C614.498 557.161 608.654 551.317 601.471 551.317L392.819 551.317C385.635 551.317 379.791 557.161 379.791 564.344L379.791 612.857C379.791 620.041 385.635 625.885 392.819 625.885" fill="#dbdbdb" fill-rule="nonzero" opacity="1" stroke="none"/>
<path d="M601.471 454.012C607.298 454.012 612.038 458.752 612.038 464.579L612.038 513.093C612.038 518.919 607.298 523.661 601.471 523.661L392.819 523.661C386.991 523.661 382.251 518.919 382.251 513.093L382.251 464.579C382.251 458.752 386.991 454.012 392.819 454.012L601.471 454.012ZM392.819 526.12L601.471 526.12C608.654 526.12 614.498 520.277 614.498 513.093L614.498 464.579C614.498 457.396 608.654 451.553 601.471 451.553L392.819 451.553C385.635 451.553 379.791 457.396 379.791 464.579L379.791 513.093C379.791 520.277 385.635 526.12 392.819 526.12" fill="#dbdbdb" fill-rule="nonzero" opacity="1" stroke="none"/>
<path d="M601.471 354.248C607.298 354.248 612.038 358.987 612.038 364.815L612.038 413.328C612.038 419.155 607.298 423.897 601.471 423.897L392.819 423.897C386.991 423.897 382.251 419.155 382.251 413.328L382.251 364.815C382.251 358.987 386.991 354.248 392.819 354.248L601.471 354.248ZM392.819 426.356L601.471 426.356C608.654 426.356 614.498 420.512 614.498 413.328L614.498 364.815C614.498 357.632 608.654 351.788 601.471 351.788L392.819 351.788C385.635 351.788 379.791 357.632 379.791 364.815L379.791 413.328C379.791 420.512 385.635 426.356 392.819 426.356" fill="#dbdbdb" fill-rule="nonzero" opacity="1" stroke="none"/>
<g opacity="1">
<use fill="#ffffff" fill-rule="nonzero" stroke="none" xlink:href="#Fill_2"/>
<mask height="121.89" id="StrokeMask_2" maskUnits="userSpaceOnUse" width="157.946" x="466.991" y="272.627">
<rect fill="#ffffff" height="121.89" stroke="none" width="157.946" x="466.991" y="272.627"/>
<use fill="#000000" fill-rule="evenodd" stroke="none" xlink:href="#Fill_2"/>
</mask>
<use fill="none" mask="url(#StrokeMask_2)" stroke="#141414" stroke-linecap="round" stroke-linejoin="round" stroke-width="4" xlink:href="#Fill_2"/>
</g>
<path d="M572.876 524.891L587.299 524.891L587.299 473.988L572.876 473.988L572.876 524.891Z" fill="#dbdbdb" fill-rule="nonzero" opacity="1" stroke="none"/>
<path d="M518.945 524.891L533.368 524.891L533.368 473.988L518.945 473.988L518.945 524.891Z" fill="#dbdbdb" fill-rule="nonzero" opacity="1" stroke="none"/>
<path d="M580.087 624.655L594.51 624.655L594.51 573.752L580.087 573.752L580.087 624.655Z" fill="#dbdbdb" fill-rule="nonzero" opacity="1" stroke="none"/>
<path d="M556.605 624.655L571.027 624.655L571.027 573.752L556.605 573.752L556.605 624.655Z" fill="#dbdbdb" fill-rule="nonzero" opacity="1" stroke="none"/>
<path d="M533.124 624.655L547.547 624.655L547.547 573.752L533.124 573.752L533.124 624.655Z" fill="#dbdbdb" fill-rule="nonzero" opacity="1" stroke="none"/>
<path d="M540.48 520.353L553.858 525.741L572.875 478.525L559.496 473.137L540.48 520.353Z" fill="#dbdbdb" fill-rule="nonzero" opacity="1" stroke="none"/>
<path d="M176.562 64.6394L339.028 64.6394C344.845 64.6394 349.561 69.3542 349.561 75.1707L349.561 170.907C349.561 176.725 344.845 181.441 339.028 181.441L329.259 181.441L340.425 235.679L291.574 181.441L176.562 181.441C170.746 181.441 166.03 176.725 166.03 170.907L166.03 75.1707C166.03 69.3542 170.746 64.6394 176.562 64.6394" fill="#ffffff" fill-rule="nonzero" opacity="1" stroke="none"/>
<path d="M340.426 236.908C340.614 236.908 340.803 236.865 340.98 236.777C341.476 236.524 341.742 235.974 341.63 235.431L330.768 182.671L339.028 182.671C345.514 182.671 350.791 177.395 350.791 170.908L350.791 75.1731C350.791 68.6851 345.514 63.4083 339.028 63.4083L239.591 63.4083C238.913 63.4083 238.362 63.958 238.362 64.6381C238.362 65.3181 238.913 65.8678 239.591 65.8678L339.028 65.8678C344.158 65.8678 348.332 70.0427 348.332 75.1731L348.332 170.908C348.332 176.038 344.158 180.212 339.028 180.212L329.259 180.212C328.889 180.212 328.538 180.377 328.306 180.664C328.072 180.951 327.98 181.327 328.054 181.689L338.307 231.49L292.489 180.619C292.255 180.359 291.923 180.212 291.574 180.212L176.563 180.212C171.433 180.212 167.259 176.038 167.259 170.908L167.259 75.1731C167.259 70.0427 171.433 65.8678 176.563 65.8678L194.27 65.8678C194.949 65.8678 195.5 65.3181 195.5 64.6381C195.5 63.958 194.949 63.4083 194.27 63.4083L176.563 63.4083C170.077 63.4083 164.8 68.6851 164.8 75.1731L164.8 170.908C164.8 177.395 170.077 182.671 176.563 182.671L291.027 182.671L339.511 236.501C339.751 236.767 340.085 236.908 340.426 236.908" fill="#141414" fill-rule="nonzero" opacity="1" stroke="none"/>
<path d="M216.255 65.8679L227.664 65.8679C228.342 65.8679 228.893 65.3183 228.893 64.6382C228.893 63.9582 228.342 63.4085 227.664 63.4085L216.255 63.4085C215.577 63.4085 215.026 63.9582 215.026 64.6382C215.026 65.3183 215.577 65.8679 216.255 65.8679" fill="#141414" fill-rule="nonzero" opacity="1" stroke="none"/>
<path d="M197.538 162.214L312.47 162.214C314.184 162.214 315.575 160.823 315.575 159.108L315.575 91.9695C315.575 90.2541 314.184 88.8645 312.47 88.8645L197.538 88.8645C195.823 88.8645 194.433 90.2541 194.433 91.9695L194.433 159.108C194.433 160.823 195.823 162.214 197.538 162.214" fill="#00b6f2" fill-rule="nonzero" opacity="1" stroke="none"/>
<path d="M296.39 115.706L305.915 115.706C306.53 115.706 307.028 115.207 307.028 114.592L307.028 105.068C307.028 104.453 306.53 103.954 305.915 103.954L296.39 103.954C295.775 103.954 295.277 104.453 295.277 105.068L295.277 114.592C295.277 115.207 295.775 115.706 296.39 115.706" fill="#ffffff" fill-rule="nonzero" opacity="1" stroke="none"/>
<path d="M280.586 115.706L290.111 115.706C290.726 115.706 291.224 115.207 291.224 114.592L291.224 105.068C291.224 104.453 290.726 103.954 290.111 103.954L280.586 103.954C279.971 103.954 279.473 104.453 279.473 105.068L279.473 114.592C279.473 115.207 279.971 115.706 280.586 115.706" fill="#ffffff" fill-rule="nonzero" opacity="1" stroke="none"/>
<path d="M264.782 115.706L274.307 115.706C274.922 115.706 275.42 115.207 275.42 114.592L275.42 105.068C275.42 104.453 274.922 103.954 274.307 103.954L264.782 103.954C264.167 103.954 263.668 104.453 263.668 105.068L263.668 114.592C263.668 115.207 264.167 115.706 264.782 115.706" fill="#ffffff" fill-rule="nonzero" opacity="1" stroke="none"/>
<path d="M248.977 115.706L258.503 115.706C259.118 115.706 259.616 115.207 259.616 114.592L259.616 105.068C259.616 104.453 259.118 103.954 258.503 103.954L248.977 103.954C248.363 103.954 247.865 104.453 247.865 105.068L247.865 114.592C247.865 115.207 248.363 115.706 248.977 115.706" fill="#ffffff" fill-rule="nonzero" opacity="1" stroke="none"/>
<path d="M233.173 115.706L242.698 115.706C243.313 115.706 243.811 115.207 243.811 114.592L243.811 105.068C243.811 104.453 243.313 103.954 242.698 103.954L233.173 103.954C232.558 103.954 232.06 104.453 232.06 105.068L232.06 114.592C232.06 115.207 232.558 115.706 233.173 115.706" fill="#ffffff" fill-rule="nonzero" opacity="1" stroke="none"/>
<path d="M217.369 115.706L226.894 115.706C227.509 115.706 228.007 115.207 228.007 114.592L228.007 105.068C228.007 104.453 227.509 103.954 226.894 103.954L217.369 103.954C216.754 103.954 216.256 104.453 216.256 105.068L216.256 114.592C216.256 115.207 216.754 115.706 217.369 115.706" fill="#ffffff" fill-rule="nonzero" opacity="1" stroke="none"/>
<path d="M201.565 115.706L211.09 115.706C211.705 115.706 212.203 115.207 212.203 114.592L212.203 105.068C212.203 104.453 211.705 103.954 211.09 103.954L201.565 103.954C200.95 103.954 200.452 104.453 200.452 105.068L200.452 114.592C200.452 115.207 200.95 115.706 201.565 115.706" fill="#ffffff" fill-rule="nonzero" opacity="1" stroke="none"/>
<path d="M296.39 133.134L305.915 133.134C306.53 133.134 307.028 132.635 307.028 132.02L307.028 122.495C307.028 121.881 306.53 121.381 305.915 121.381L296.39 121.381C295.775 121.381 295.277 121.881 295.277 122.495L295.277 132.02C295.277 132.635 295.775 133.134 296.39 133.134" fill="#ffffff" fill-rule="nonzero" opacity="1" stroke="none"/>
<path d="M280.586 133.134L290.111 133.134C290.726 133.134 291.224 132.635 291.224 132.02L291.224 122.495C291.224 121.881 290.726 121.381 290.111 121.381L280.586 121.381C279.971 121.381 279.473 121.881 279.473 122.495L279.473 132.02C279.473 132.635 279.971 133.134 280.586 133.134" fill="#ffffff" fill-rule="nonzero" opacity="1" stroke="none"/>
<path d="M264.782 133.134L274.307 133.134C274.922 133.134 275.42 132.635 275.42 132.02L275.42 122.495C275.42 121.881 274.922 121.381 274.307 121.381L264.782 121.381C264.167 121.381 263.668 121.881 263.668 122.495L263.668 132.02C263.668 132.635 264.167 133.134 264.782 133.134" fill="#ffffff" fill-rule="nonzero" opacity="1" stroke="none"/>
<path d="M248.977 133.134L258.503 133.134C259.118 133.134 259.616 132.635 259.616 132.02L259.616 122.495C259.616 121.881 259.118 121.381 258.503 121.381L248.977 121.381C248.363 121.381 247.865 121.881 247.865 122.495L247.865 132.02C247.865 132.635 248.363 133.134 248.977 133.134" fill="#ec2961" fill-rule="nonzero" opacity="1" stroke="none"/>
<path d="M233.173 133.134L242.698 133.134C243.313 133.134 243.811 132.635 243.811 132.02L243.811 122.495C243.811 121.881 243.313 121.381 242.698 121.381L233.173 121.381C232.558 121.381 232.06 121.881 232.06 122.495L232.06 132.02C232.06 132.635 232.558 133.134 233.173 133.134" fill="#ffffff" fill-rule="nonzero" opacity="1" stroke="none"/>
<path d="M217.369 133.134L226.894 133.134C227.509 133.134 228.007 132.635 228.007 132.02L228.007 122.495C228.007 121.881 227.509 121.381 226.894 121.381L217.369 121.381C216.754 121.381 216.256 121.881 216.256 122.495L216.256 132.02C216.256 132.635 216.754 133.134 217.369 133.134" fill="#ffffff" fill-rule="nonzero" opacity="1" stroke="none"/>
<path d="M201.565 133.134L211.09 133.134C211.705 133.134 212.203 132.635 212.203 132.02L212.203 122.495C212.203 121.881 211.705 121.381 211.09 121.381L201.565 121.381C200.95 121.381 200.452 121.881 200.452 122.495L200.452 132.02C200.452 132.635 200.95 133.134 201.565 133.134" fill="#ffffff" fill-rule="nonzero" opacity="1" stroke="none"/>
<path d="M296.39 150.561L305.915 150.561C306.53 150.561 307.028 150.062 307.028 149.447L307.028 139.923C307.028 139.308 306.53 138.809 305.915 138.809L296.39 138.809C295.775 138.809 295.277 139.308 295.277 139.923L295.277 149.447C295.277 150.062 295.775 150.561 296.39 150.561" fill="#ffffff" fill-rule="nonzero" opacity="1" stroke="none"/>
<path d="M280.586 150.561L290.111 150.561C290.726 150.561 291.224 150.062 291.224 149.447L291.224 139.923C291.224 139.308 290.726 138.809 290.111 138.809L280.586 138.809C279.971 138.809 279.473 139.308 279.473 139.923L279.473 149.447C279.473 150.062 279.971 150.561 280.586 150.561" fill="#ffffff" fill-rule="nonzero" opacity="1" stroke="none"/>
<path d="M264.782 150.561L274.307 150.561C274.922 150.561 275.42 150.062 275.42 149.447L275.42 139.923C275.42 139.308 274.922 138.809 274.307 138.809L264.782 138.809C264.167 138.809 263.668 139.308 263.668 139.923L263.668 149.447C263.668 150.062 264.167 150.561 264.782 150.561" fill="#ffffff" fill-rule="nonzero" opacity="1" stroke="none"/>
<path d="M248.977 150.561L258.503 150.561C259.118 150.561 259.616 150.062 259.616 149.447L259.616 139.923C259.616 139.308 259.118 138.809 258.503 138.809L248.977 138.809C248.363 138.809 247.865 139.308 247.865 139.923L247.865 149.447C247.865 150.062 248.363 150.561 248.977 150.561" fill="#ffffff" fill-rule="nonzero" opacity="1" stroke="none"/>
<path d="M233.173 150.561L242.698 150.561C243.313 150.561 243.811 150.062 243.811 149.447L243.811 139.923C243.811 139.308 243.313 138.809 242.698 138.809L233.173 138.809C232.558 138.809 232.06 139.308 232.06 139.923L232.06 149.447C232.06 150.062 232.558 150.561 233.173 150.561" fill="#ffffff" fill-rule="nonzero" opacity="1" stroke="none"/>
<path d="M217.369 150.561L226.894 150.561C227.509 150.561 228.007 150.062 228.007 149.447L228.007 139.923C228.007 139.308 227.509 138.809 226.894 138.809L217.369 138.809C216.754 138.809 216.256 139.308 216.256 139.923L216.256 149.447C216.256 150.062 216.754 150.561 217.369 150.561" fill="#ffffff" fill-rule="nonzero" opacity="1" stroke="none"/>
<path d="M201.565 150.561L211.09 150.561C211.705 150.561 212.203 150.062 212.203 149.447L212.203 139.923C212.203 139.308 211.705 138.809 211.09 138.809L201.565 138.809C200.95 138.809 200.452 139.308 200.452 139.923L200.452 149.447C200.452 150.062 200.95 150.561 201.565 150.561" fill="#ffffff" fill-rule="nonzero" opacity="1" stroke="none"/>
<path d="M302.479 94.9008C303.157 94.9008 303.708 94.3511 303.708 93.6711L303.708 82.2544C303.708 81.5731 303.157 81.0247 302.479 81.0247C301.8 81.0247 301.249 81.5731 301.249 82.2544L301.249 93.6711C301.249 94.3511 301.8 94.9008 302.479 94.9008" fill="#ec2961" fill-rule="nonzero" opacity="1" stroke="none"/>
<path d="M286.654 94.9008C287.333 94.9008 287.884 94.3511 287.884 93.6711L287.884 82.2544C287.884 81.5731 287.333 81.0247 286.654 81.0247C285.975 81.0247 285.424 81.5731 285.424 82.2544L285.424 93.6711C285.424 94.3511 285.975 94.9008 286.654 94.9008" fill="#ec2961" fill-rule="nonzero" opacity="1" stroke="none"/>
<path d="M270.829 94.9008C271.508 94.9008 272.059 94.3511 272.059 93.6711L272.059 82.2544C272.059 81.5731 271.508 81.0247 270.829 81.0247C270.15 81.0247 269.599 81.5731 269.599 82.2544L269.599 93.6711C269.599 94.3511 270.15 94.9008 270.829 94.9008" fill="#ec2961" fill-rule="nonzero" opacity="1" stroke="none"/>
<path d="M255.004 94.9008C255.683 94.9008 256.234 94.3511 256.234 93.6711L256.234 82.2544C256.234 81.5731 255.683 81.0247 255.004 81.0247C254.325 81.0247 253.774 81.5731 253.774 82.2544L253.774 93.6711C253.774 94.3511 254.325 94.9008 255.004 94.9008" fill="#ec2961" fill-rule="nonzero" opacity="1" stroke="none"/>
<path d="M239.179 94.9008C239.858 94.9008 240.409 94.3511 240.409 93.6711L240.409 82.2544C240.409 81.5731 239.858 81.0247 239.179 81.0247C238.5 81.0247 237.949 81.5731 237.949 82.2544L237.949 93.6711C237.949 94.3511 238.5 94.9008 239.179 94.9008" fill="#ec2961" fill-rule="nonzero" opacity="1" stroke="none"/>
<path d="M223.354 94.9008C224.033 94.9008 224.584 94.3511 224.584 93.6711L224.584 82.2544C224.584 81.5731 224.033 81.0247 223.354 81.0247C222.675 81.0247 222.124 81.5731 222.124 82.2544L222.124 93.6711C222.124 94.3511 222.675 94.9008 223.354 94.9008" fill="#ec2961" fill-rule="nonzero" opacity="1" stroke="none"/>
<g opacity="1">
<path d="M636.206 26.7143L537.389 26.7143C532.634 26.7143 528.779 30.5707 528.779 35.326L528.779 136.384C528.779 141.141 532.634 144.997 537.39 144.997L545.376 144.997L526.533 184.1L576.182 144.997L636.206 144.997C640.962 144.997 644.817 141.141 644.817 136.384L644.817 35.326C644.817 30.5707 640.962 26.7143 636.206 26.7143" fill="#ffffff" fill-rule="nonzero" opacity="1" stroke="none"/>
<path d="M526.533 185.33C526.802 185.33 527.07 185.243 527.294 185.066L576.608 146.225L636.205 146.225C641.632 146.225 646.047 141.81 646.047 136.385L646.047 35.3265C646.047 29.8986 641.632 25.4851 636.205 25.4851L621.73 25.4851C621.052 25.4851 620.501 26.0348 620.501 26.7148C620.501 27.3936 621.052 27.9445 621.73 27.9445L636.205 27.9445C640.276 27.9445 643.587 31.2562 643.587 35.3265L643.587 136.385C643.587 140.455 640.276 143.766 636.205 143.766L576.182 143.766C575.905 143.766 575.638 143.858 575.42 144.03L529.948 179.844L546.484 145.53C546.667 145.148 546.643 144.7 546.416 144.341C546.191 143.983 545.799 143.766 545.376 143.766L537.39 143.766C533.32 143.766 530.008 140.455 530.008 136.385L530.008 35.3265C530.008 31.2562 533.32 27.9445 537.389 27.9445L584.68 27.9445C585.359 27.9445 585.91 27.3936 585.91 26.7148C585.91 26.0348 585.359 25.4851 584.68 25.4851L537.389 25.4851C531.963 25.4851 527.549 29.8986 527.549 35.3265L527.549 136.385C527.549 141.81 531.963 146.225 537.39 146.225L543.418 146.225L525.425 183.567C525.177 184.082 525.317 184.7 525.763 185.06C525.988 185.24 526.26 185.33 526.533 185.33" fill="#03152c" fill-rule="nonzero" opacity="1" stroke="none"/>
</g>
<path d="M207.529 94.9008C208.208 94.9008 208.759 94.3511 208.759 93.6711L208.759 82.2544C208.759 81.5731 208.208 81.0247 207.529 81.0247C206.85 81.0247 206.299 81.5731 206.299 82.2544L206.299 93.6711C206.299 94.3511 206.85 94.9008 207.529 94.9008" fill="#ec2961" fill-rule="nonzero" opacity="1" stroke="none"/>
<path d="M397.821 701.919L376.811 702.997C378.158 720.207 369.584 728.371 351.982 729.979C341.64 730.925 342.452 743.661 342.452 743.661L399.721 743.661C399.721 743.661 406.616 737.677 399.306 724.805C397.518 721.656 397.821 701.919 397.821 701.919" fill="#ffffff" fill-rule="nonzero" opacity="1" stroke="none"/>
<path d="M351.982 729.98C341.64 730.925 342.452 743.661 342.452 743.661L399.721 743.661C399.721 743.661 406.616 737.678 399.306 724.805C395.432 727.011 385.563 729.332 373.304 721.563C368.576 725.396 359.155 729.324 351.982 729.98" fill="#141414" fill-rule="nonzero" opacity="1" stroke="none"/>
<path d="M363.831 726.85C363.831 726.85 373.619 721.037 374.81 715.912C376.002 710.786 382.083 715.437 382.678 716.866C383.274 718.297 375.501 726.703 363.831 726.85" fill="#212025" fill-rule="nonzero" opacity="1" stroke="none"/>
<path d="M378.835 421.494C370.914 455.187 373.321 518.202 372.039 573.167C371.02 616.91 371.749 682.452 370.561 709.726C370.561 709.726 394.218 714.458 404.241 709.603C404.241 709.603 421.435 596.257 425.699 580.708C429.965 565.159 443.815 465.722 432.707 423.273C421.601 380.824 381.945 408.266 378.835 421.494" fill="#00b6f2" fill-rule="nonzero" opacity="1" stroke="none"/>
<path d="M403.125 708.76C394.49 712.419 376.35 709.514 371.836 708.709C372.425 694.09 372.514 669.333 372.61 643.159C372.698 618.877 372.79 593.77 373.268 573.194C373.605 558.76 373.688 543.589 373.769 528.916C374.001 486.529 374.221 446.493 380.032 421.775C381.779 414.342 396.311 401.897 409.577 401.731C409.667 401.73 409.758 401.73 409.849 401.73C420.285 401.73 427.774 409.28 431.518 423.584C442.762 466.553 428.37 566.326 424.514 580.382C420.4 595.376 404.674 698.562 403.125 708.76M390.729 713.028C395.991 713.028 401.177 712.455 404.776 710.711C405.141 710.533 405.396 710.189 405.456 709.789C405.628 708.655 422.688 596.334 426.885 581.033C430.769 566.877 445.247 466.338 433.897 422.962C428.725 403.196 417.811 399.125 409.545 399.272C400.599 399.383 392.767 404.237 388.894 407.121C382.955 411.544 378.641 416.944 377.637 421.213C371.764 446.2 371.543 486.373 371.309 528.902C371.228 543.564 371.146 558.724 370.81 573.137C370.33 593.737 370.238 618.857 370.151 643.149C370.053 669.946 369.96 695.259 369.333 709.67C369.307 710.276 369.725 710.811 370.321 710.93C370.959 711.057 380.974 713.028 390.729 713.028" fill="#141414" fill-rule="nonzero" opacity="1" stroke="none"/>
<path d="M307.677 369.593C295.447 362.037 261.373 321.451 254.793 313.91C246.862 304.822 256.023 288.264 265.178 296.656C274.014 304.755 327.111 347.798 330.977 353.755C337.958 364.51 322.981 379.047 307.677 369.593" fill="#ffffff" fill-rule="nonzero" opacity="1" stroke="none"/>
<path d="M525.55 684.362L506.228 692.685C513.48 708.352 508.282 718.986 492.342 726.62C482.975 731.106 488.168 742.764 488.168 742.764L541.857 722.834C541.857 722.834 546.239 714.826 534.907 705.301C532.135 702.972 525.55 684.362 525.55 684.362" fill="#ffffff" fill-rule="nonzero" opacity="1" stroke="none"/>
<path d="M492.341 726.621C482.974 731.105 488.167 742.764 488.167 742.764L541.857 722.834C541.857 722.834 546.24 714.826 534.907 705.301C532.043 708.716 523.597 714.327 509.402 711.313C506.303 716.552 498.838 723.509 492.341 726.621" fill="#141414" fill-rule="nonzero" opacity="1" stroke="none"/>
<path d="M502.361 719.564C502.361 719.564 509.513 710.71 508.847 705.49C508.182 700.27 515.498 702.513 516.555 703.647C517.611 704.781 513.25 715.365 502.361 719.564" fill="#141414" fill-rule="nonzero" opacity="1" stroke="none"/>
<path d="M535.743 689.394C535.743 689.394 507.953 707.032 497.932 702.182C497.932 702.182 446.203 599.358 441.936 583.812C437.67 568.263 422.581 465.723 433.669 423.283C444.788 380.811 484.449 408.252 487.552 421.505C488.844 426.968 489.846 433.918 490.654 441.901C494.792 482.887 496.312 551.056 495.471 587.678C495.244 597.731 534.806 668.352 535.743 689.394" fill="#00b6f2" fill-rule="nonzero" opacity="1" stroke="none"/>
<path d="M534.469 688.742C526.546 693.673 506.622 704.359 498.834 701.237C495.33 694.26 447.176 598.257 443.122 583.485C439.102 568.836 423.749 466.12 434.858 423.594C438.64 409.15 446.284 401.587 456.826 401.724C470.091 401.897 484.613 414.35 486.354 421.785C487.563 426.894 488.57 433.514 489.431 442.025C493.404 481.388 495.126 549.103 494.241 587.651C494.143 592.005 500.053 604.902 509.703 625.585C520.313 648.321 533.466 676.511 534.469 688.742M502.19 704.229C514.502 704.229 535.391 691.074 536.401 690.433C536.774 690.197 536.991 689.78 536.972 689.338C536.423 677.031 523.411 649.146 511.932 624.545C504.052 607.657 496.61 591.707 496.701 587.706C497.586 549.087 495.861 481.232 491.878 441.778C491.006 433.159 489.982 426.434 488.748 421.222C486.797 412.888 471.409 399.454 456.858 399.265C448.65 399.159 437.66 403.183 432.479 422.972C421.262 465.906 436.703 569.387 440.751 584.137C445.001 599.623 494.72 698.532 496.835 702.735C496.957 702.976 497.153 703.172 497.398 703.29C498.748 703.943 500.376 704.229 502.19 704.229" fill="#141414" fill-rule="nonzero" opacity="1" stroke="none"/>
<path d="M400.992 336.571C389.778 346.465 333.429 367.58 322.929 371.754C310.275 376.788 294.38 359.265 302.957 350.209C310.544 342.196 375.382 309.701 383.513 307.751C398.19 304.23 415.025 324.192 400.992 336.571" fill="#ffffff" fill-rule="nonzero" opacity="1" stroke="none"/>
<g opacity="1">
<use fill="#ffffff" fill-rule="nonzero" stroke="none" xlink:href="#Fill_3"/>
<mask height="95.7789" id="StrokeMask_3" maskUnits="userSpaceOnUse" width="192.586" x="215.661" y="278.799">
<rect fill="#ffffff" height="95.7789" stroke="none" width="192.586" x="215.661" y="278.799"/>
<use fill="#000000" fill-rule="evenodd" stroke="none" xlink:href="#Fill_3"/>
</mask>
<use fill="none" mask="url(#StrokeMask_3)" stroke="#141414" stroke-linecap="round" stroke-linejoin="round" stroke-width="4" xlink:href="#Fill_3"/>
</g>
<path d="M368.665 357.867C387.541 350.204 405.888 335.906 412.074 330.511C426.778 317.689 413.365 296.487 398.472 299.873C394.752 300.716 368.855 305.302 351.157 315.215C350.187 331.995 366.349 355.847 368.665 357.867" fill="#ec2961" fill-rule="nonzero" opacity="1" stroke="none"/>
<path d="M408.378 298.656C408.378 298.656 395.891 297.58 389.3 304.244C382.708 310.908 371.611 340.097 375.618 373.729C379.627 407.361 368.807 465.96 368.807 465.96C368.807 465.96 426.568 479.219 498.653 464.075C498.653 464.075 493.28 340.486 476.191 307.26C470.762 296.708 445.356 296.686 441.504 296.348C437.654 296.012 408.378 298.656 408.378 298.656" fill="#ec2961" fill-rule="nonzero" opacity="1" stroke="none"/>
<path d="M491.924 309.493C505.358 316.064 546.437 360.037 554.314 368.137C563.81 377.898 556.813 394.454 544.516 392.368C534.038 390.59 476.907 343.438 471.993 336.674C463.121 324.461 475.117 301.267 491.924 309.493" fill="#ffffff" fill-rule="nonzero" opacity="1" stroke="none"/>
<path d="M560.781 385.417C570.249 374.598 590.875 325.784 594.947 316.64C599.854 305.623 583.925 296.18 577.643 306.895C571.581 317.233 535.797 370.304 533.854 377.135C530.346 389.466 548.936 398.955 560.781 385.417" fill="#ffffff" fill-rule="nonzero" opacity="1" stroke="none"/>
<path d="M525.722 328.69C509.572 316.273 481.435 304.389 473.655 301.778C455.162 295.567 443.641 317.853 454.088 328.995C456.697 331.779 478.98 355.153 496.476 365.416C511.448 357.776 525.149 331.708 525.722 328.69" fill="#ec2961" fill-rule="nonzero" opacity="1" stroke="#ec2961" stroke-linecap="round" stroke-linejoin="round" stroke-width="6"/>
<path d="M234.249 321.846C233.845 321.367 233.718 320.658 234.082 320.117C236.445 316.619 239.597 315.877 243.481 314.724C244.113 314.536 244.65 314.306 245.219 314.089C241.851 315.099 238.228 315.422 234.999 314.825C231.038 314.092 226.995 312.237 223.349 310.617C221.992 310.014 220.294 309.608 220.074 307.96C219.99 307.343 220.265 306.68 220.867 306.418C224.764 304.724 227.84 305.768 231.759 306.851C235.213 307.804 238.013 307.884 241.088 306.969C241.069 306.95 241.051 306.93 241.031 306.91C237.45 307.424 233.735 307.149 230.559 305.738C226.878 304.103 223.385 301.361 220.22 298.937C219.045 298.038 217.49 297.246 217.668 295.597C217.733 294.978 218.158 294.399 218.808 294.285C223.003 293.551 225.749 295.28 229.306 297.245C231.327 298.36 233.164 299.057 235.069 299.383C235.037 299.33 235.005 299.276 234.975 299.223C233.622 298.692 232.336 297.994 231.192 297.025C228.123 294.431 225.55 290.827 223.204 287.625C222.332 286.433 221.062 285.24 221.705 283.712C221.945 283.137 222.519 282.701 223.175 282.775C227.419 283.246 229.563 285.669 232.419 288.547C234.977 291.121 237.409 292.579 240.619 293.302C244.557 292.082 247.62 290.233 249.19 289.534C245.297 287.129 239.51 288.167 238.431 282.497C238.268 281.64 238.995 280.693 239.933 280.813C244.183 281.36 249.729 281.164 253.494 283.522C257.144 285.806 268.725 291.342 266.138 308.963C265.501 313.296 254.271 318.295 250.518 319.778C246.79 321.252 242.384 321.816 238.44 322.369C236.974 322.574 235.325 323.128 234.249 321.846" fill="#ffffff" fill-rule="nonzero" opacity="1" stroke="none"/>
<path d="M178.995 226.827L253.417 253.84C253.417 253.84 251.325 306.785 228.134 339.994C228.134 339.994 154.724 335.386 141.491 330.818C141.491 330.818 183.172 265.393 178.995 226.827" fill="#ffffff" fill-rule="nonzero" opacity="1" stroke="none"/>
<path d="M252.141 254.685C251.729 261.719 248.247 308.517 227.519 338.723C220.272 338.254 158.716 334.185 143.384 330.104C146.086 325.72 154.732 311.329 162.923 293.806C175.634 266.611 181.504 244.703 180.389 228.641L252.141 254.685ZM228.135 341.224C228.535 341.224 228.912 341.03 229.142 340.699C235.508 331.584 240.299 320.951 243.902 310.316C245.227 306.406 246.39 302.495 247.413 298.66C253.713 275.018 254.633 254.22 254.646 253.888C254.666 253.353 254.339 252.866 253.836 252.683L179.414 225.67C179.014 225.526 178.569 225.6 178.236 225.859C177.901 226.121 177.727 226.537 177.772 226.958C181.855 264.652 140.868 329.507 140.454 330.158C140.251 330.475 140.206 330.867 140.33 331.223C140.454 331.579 140.733 331.858 141.09 331.98C154.328 336.551 225.054 341.033 228.058 341.221C228.084 341.223 228.109 341.224 228.135 341.224" fill="#141414" fill-rule="nonzero" opacity="1" stroke="none"/>
<path d="M237.918 263.329L237.919 263.328C238.169 262.735 237.892 262.055 237.298 261.812C232.437 259.817 211.934 251.573 193.546 246.8C192.925 246.638 192.294 247.019 192.137 247.643C191.982 248.259 192.346 248.879 192.959 249.037C211.218 253.777 231.614 261.98 236.42 263.954C237.008 264.195 237.672 263.914 237.918 263.329" fill="#00b6f2" fill-rule="nonzero" opacity="1" stroke="none"/>
<path d="M235.488 274.208L235.49 274.205C235.739 273.613 235.463 272.933 234.869 272.69C230.006 270.695 209.504 262.451 191.116 257.678C190.494 257.517 189.863 257.897 189.706 258.522C189.551 259.136 189.915 259.756 190.529 259.915C208.788 264.654 229.185 272.858 233.991 274.831C234.578 275.072 235.242 274.793 235.488 274.208" fill="#00b6f2" fill-rule="nonzero" opacity="1" stroke="none"/>
<path d="M229.107 300.056L229.109 300.054C229.358 299.463 229.082 298.783 228.488 298.539C223.625 296.543 203.122 288.299 184.735 283.527C184.113 283.366 183.482 283.748 183.325 284.37C183.17 284.985 183.534 285.604 184.148 285.764C202.407 290.504 222.804 298.706 227.61 300.681C228.197 300.922 228.861 300.643 229.107 300.056" fill="#00b6f2" fill-rule="nonzero" opacity="1" stroke="none"/>
<path d="M226.679 310.934L226.68 310.931C226.88 310.321 226.553 309.667 225.942 309.472C220.943 307.869 199.807 301.233 180.13 297.145C179.503 297.015 178.89 297.424 178.763 298.051C178.636 298.675 179.032 299.279 179.655 299.408C199.231 303.478 220.28 310.088 225.235 311.677C225.84 311.871 226.481 311.538 226.679 310.934" fill="#00b6f2" fill-rule="nonzero" opacity="1" stroke="none"/>
<path d="M220.172 322.491L220.172 322.488C220.312 321.859 219.918 321.238 219.289 321.107C214.18 320.034 192.81 315.768 173.78 315.181C173.138 315.161 172.606 315.675 172.591 316.318L172.591 316.321C172.575 316.954 173.068 317.476 173.703 317.495C192.557 318.074 213.777 322.315 218.811 323.373C219.431 323.502 220.034 323.109 220.172 322.491" fill="#00b6f2" fill-rule="nonzero" opacity="1" stroke="none"/>
<path d="M248.385 281.313C255.224 283.468 260.542 288.376 263.709 294.609C264.411 294.676 265.02 295.143 264.918 296.054C264.882 296.374 264.817 296.659 264.755 296.948C264.877 297.253 265.026 297.544 265.139 297.852C265.584 299.077 264.462 299.828 263.442 299.689C260.879 302.551 255.744 301.244 253.013 297.529C251.744 295.802 251.189 293.458 249.813 291.843C246.794 288.297 243.165 288.377 239.041 287.937C237.099 287.728 233.372 287.655 233.039 285.037C232.263 278.927 245.503 280.405 248.385 281.313" fill="#ffffff" fill-rule="nonzero" filter="url(#Filter)" stroke="none"/>
<path d="M614.845 315.187C615.043 314.595 614.899 313.888 614.361 313.521C610.872 311.143 607.67 311.619 603.635 311.981C602.977 312.04 602.393 312.027 601.786 312.036C605.287 311.728 608.773 310.69 611.553 308.943C614.963 306.797 618.034 303.578 620.823 300.725C621.861 299.665 623.287 298.659 622.885 297.047C622.734 296.443 622.233 295.927 621.577 295.907C617.33 295.773 614.857 297.879 611.616 300.332C608.759 302.497 606.187 303.606 602.992 303.891C603.002 303.868 603.013 303.842 603.023 303.817C606.541 302.971 609.891 301.341 612.321 298.857C615.135 295.978 617.369 292.137 619.412 288.718C620.172 287.445 621.326 286.136 620.551 284.669C620.261 284.118 619.652 283.737 619.006 283.87C614.835 284.74 612.923 287.362 610.344 290.502C608.88 292.286 607.43 293.612 605.781 294.619C605.791 294.559 605.801 294.496 605.809 294.436C606.87 293.441 607.806 292.316 608.512 290.995C610.405 287.45 611.463 283.149 612.459 279.305C612.83 277.876 613.569 276.3 612.407 275.117C611.971 274.673 611.276 274.479 610.694 274.789C606.925 276.797 605.828 279.843 604.238 283.569C602.812 286.906 601.091 289.162 598.376 291.021C594.266 291.342 590.738 290.757 589.019 290.685C591.747 287.012 597.509 285.838 596.415 280.171C596.249 279.314 595.225 278.702 594.397 279.16C590.65 281.241 585.425 283.108 582.797 286.69C580.251 290.161 571.536 299.587 580.452 315.003C582.645 318.795 594.927 319.29 598.963 319.28C602.972 319.27 607.275 318.166 611.144 317.221C612.582 316.871 614.318 316.777 614.845 315.187" fill="#ffffff" fill-rule="nonzero" opacity="1" stroke="none"/>
<path d="M631.067 206.475L571.899 259.081C571.899 259.081 593.412 307.505 627.234 329.79C627.234 329.79 693.743 298.377 704.351 289.241C704.351 289.241 641.441 243.853 631.067 206.475" fill="#ffffff" fill-rule="nonzero" opacity="1" stroke="none"/>
<path d="M702.327 289.277C689.59 298.736 633.897 325.269 627.335 328.383C596.911 307.977 576.379 265.779 573.397 259.395L630.441 208.675C635.343 224.013 648.894 242.201 670.756 262.77C684.844 276.028 698.196 286.201 702.327 289.277M627.234 331.021C627.412 331.021 627.592 330.983 627.759 330.904C630.481 329.618 694.542 299.311 705.153 290.173C705.439 289.926 705.596 289.563 705.58 289.188C705.564 288.812 705.375 288.464 705.07 288.244C704.445 287.793 642.389 242.682 632.253 206.144C632.138 205.737 631.822 205.415 631.415 205.294C631.009 205.179 630.568 205.273 630.251 205.555L571.082 258.162C570.682 258.518 570.559 259.091 570.775 259.582C570.992 260.069 592.824 308.591 626.557 330.818C626.761 330.953 626.997 331.021 627.234 331.021" fill="#141414" fill-rule="nonzero" opacity="1" stroke="none"/>
<path d="M591.467 260.952C595.203 257.343 611.124 242.184 626.337 231.031C626.848 230.653 626.96 229.941 626.587 229.426C626.211 228.907 625.484 228.787 624.967 229.167C609.646 240.399 593.641 255.635 589.859 259.287C589.398 259.734 589.393 260.467 589.845 260.927C590.29 261.379 591.01 261.393 591.467 260.952" fill="#00b6f2" fill-rule="nonzero" opacity="1" stroke="none"/>
<path d="M597.746 270.161C601.482 266.552 617.401 251.391 632.613 240.239C633.126 239.863 633.237 239.151 632.865 238.636L632.864 238.636C632.488 238.116 631.761 237.996 631.243 238.375C615.925 249.606 599.919 264.844 596.138 268.496C595.676 268.944 595.672 269.675 596.124 270.135C596.569 270.588 597.289 270.602 597.746 270.161" fill="#00b6f2" fill-rule="nonzero" opacity="1" stroke="none"/>
<path d="M613.229 291.824C616.965 288.215 632.885 273.055 648.097 261.901C648.61 261.526 648.721 260.813 648.35 260.299C647.973 259.777 647.246 259.658 646.729 260.037C631.408 271.268 615.402 286.505 611.622 290.159C611.159 290.605 611.155 291.339 611.607 291.798C612.052 292.251 612.773 292.264 613.229 291.824" fill="#00b6f2" fill-rule="nonzero" opacity="1" stroke="none"/>
<path d="M619.5 301.162C623.516 297.858 640.631 283.935 657.319 272.917C657.85 272.566 657.996 271.858 657.646 271.325C657.295 270.789 656.575 270.636 656.04 270.99C639.269 282.062 622.083 296.038 618.03 299.377C617.533 299.785 617.471 300.514 617.885 301.006L617.886 301.007C618.293 301.494 619.01 301.565 619.5 301.162" fill="#00b6f2" fill-rule="nonzero" opacity="1" stroke="none"/>
<path d="M629.791 309.656C634.078 306.812 652.226 295.03 669.532 287.524C670.113 287.271 670.38 286.601 670.133 286.017L670.132 286.015C669.88 285.424 669.196 285.144 668.607 285.4C651.142 292.977 632.861 304.843 628.511 307.728C627.975 308.083 627.838 308.806 628.201 309.338L628.201 309.339C628.557 309.863 629.262 310.007 629.791 309.656" fill="#00b6f2" fill-rule="nonzero" opacity="1" stroke="none"/>
<path d="M602.365 280.539C603.023 283.093 599.587 284.538 597.859 285.449C594.19 287.384 590.788 288.65 589.294 293.061C588.612 295.071 588.963 297.454 588.421 299.527C587.257 303.99 582.97 307.101 579.53 305.391C578.634 305.895 577.313 305.614 577.275 304.31C577.265 303.981 577.296 303.657 577.297 303.328C577.132 303.084 576.966 302.843 576.815 302.558C576.383 301.749 576.777 301.09 577.404 300.769C578.042 293.807 581.171 287.278 586.728 282.749C589.07 280.84 600.828 274.573 602.365 280.539" fill="#ffffff" fill-rule="nonzero" filter="url(#Filter_2)" stroke="none"/>
<path d="M410.287 282.278C410.287 282.278 411.74 294.039 410.364 298.077C408.691 302.983 431.209 312.336 436.408 296.839C437.588 293.321 432.041 275.406 433.165 265.791L410.287 282.278Z" fill="#ffffff" fill-rule="nonzero" opacity="1" stroke="none"/>
<path d="M444.19 272.198C442.953 274.059 440.147 275.319 437.905 274.431C435.496 273.478 436.776 269.688 437.637 268.017C438.807 265.749 438.295 240.724 438.411 240.712C439.194 240.328 446.469 246.219 446.654 247.308C447.12 250.06 452.083 260.314 444.19 272.198" fill="#141414" fill-rule="nonzero" opacity="1" stroke="none"/>
<path d="M399.32 232.145L399.32 269.964C399.32 280.19 408.357 288.48 419.504 288.48C430.652 288.48 439.688 280.19 439.688 269.964L439.688 269.116C439.688 269.116 450.055 271.373 450.055 260.028C450.055 248.681 443.535 250.269 443.535 250.269L443.535 232.145L399.32 232.145Z" fill="#ffffff" fill-rule="nonzero" opacity="1" stroke="none"/>
<path d="M443.535 250.269C444.41 252.83 439.859 256.481 437.662 256.487C433.165 256.499 431.362 240.331 429.279 232.146C424.664 234.146 401.21 235.006 396.263 233.819C388.895 232.053 384.926 217.041 389.88 211.85C402.042 199.108 438.639 201.827 444.153 213.225C444.169 213.26 444.165 213.293 444.179 213.327C454.932 216.563 454.709 248.432 443.535 250.269" fill="#141414" fill-rule="nonzero" opacity="1" stroke="none"/>
<path d="M423.423 289.36C423.52 289.36 423.618 289.349 423.716 289.325C442.495 284.752 440.927 269.133 440.909 268.976C440.831 268.302 440.213 267.816 439.547 267.895C438.874 267.971 438.389 268.58 438.465 269.253C438.526 269.808 439.756 282.888 423.133 286.935C422.474 287.096 422.069 287.761 422.229 288.42C422.367 288.982 422.87 289.36 423.423 289.36" fill="#141414" fill-rule="nonzero" opacity="1" stroke="none"/>
<path d="M422.51 244.704C425.972 245.125 425.043 252.839 421.574 252.418C418.111 251.998 419.04 244.284 422.51 244.704" fill="#141414" fill-rule="nonzero" opacity="1" stroke="none"/>
<path d="M405.943 243.593C409.405 244.015 408.475 251.728 405.007 251.306C401.543 250.887 402.473 243.172 405.943 243.593" fill="#141414" fill-rule="nonzero" opacity="1" stroke="none"/>
<path d="M410.159 263.112L410.147 263.112L410.159 263.112ZM411.516 265.233C411.98 265.233 412.415 265.203 412.776 265.169C413.451 265.103 413.945 264.502 413.879 263.826C413.814 263.15 413.207 262.665 412.537 262.722C411.745 262.798 410.822 262.766 410.305 262.66C410.957 260.667 412.597 255.893 412.616 255.842C412.836 255.198 412.494 254.499 411.851 254.279C411.209 254.062 410.511 254.402 410.289 255.041C410.209 255.275 408.325 260.759 407.815 262.369C407.607 263.023 407.719 263.661 408.129 264.167C408.822 265.024 410.27 265.233 411.516 265.233" fill="#141414" fill-rule="nonzero" opacity="1" stroke="none"/>
<path d="M416.841 271.57C417.229 271.57 417.634 271.71 418.01 271.983C418.594 272.405 419.032 273.07 419.241 273.857C419.643 275.367 419.039 276.893 417.923 277.191C417.419 277.32 416.862 277.198 416.352 276.829C415.767 276.408 415.331 275.743 415.121 274.955C414.719 273.445 415.323 271.919 416.44 271.621C416.57 271.588 416.704 271.57 416.841 271.57M417.511 279.704C417.861 279.704 418.211 279.659 418.556 279.566C421.002 278.916 422.376 276.07 421.618 273.226C421.263 271.891 420.493 270.741 419.45 269.988C418.331 269.183 417.034 268.918 415.806 269.245C413.361 269.897 411.987 272.741 412.744 275.587C413.1 276.923 413.87 278.071 414.912 278.824C415.717 279.404 416.613 279.704 417.511 279.704" fill="#141414" fill-rule="nonzero" opacity="1" stroke="none"/>
<path d="M496.475 366.647C496.899 366.647 497.313 366.427 497.54 366.033C497.881 365.447 497.68 364.693 497.092 364.354C473.698 350.802 460.114 336.539 459.978 336.395C459.513 335.903 458.734 335.881 458.241 336.344C457.746 336.81 457.724 337.59 458.19 338.083C458.328 338.229 472.159 352.754 495.86 366.481C496.055 366.594 496.266 366.647 496.475 366.647" fill="#141414" fill-rule="nonzero" opacity="1" stroke="none"/>
<path d="M375.619 374.958L375.621 374.958C376.3 374.957 376.85 374.406 376.848 373.726C376.779 336.375 383.425 317.309 383.491 317.121C383.719 316.482 383.387 315.778 382.747 315.549C382.107 315.318 381.404 315.655 381.176 316.293C380.895 317.078 374.32 335.891 374.389 373.731C374.39 374.41 374.941 374.958 375.619 374.958" fill="#141414" fill-rule="nonzero" opacity="1" stroke="none"/>
<g opacity="1">
<path d="M472.119 211.24C472.229 211.24 472.341 211.225 472.453 211.195L491.072 205.941C491.725 205.757 492.105 205.077 491.922 204.424C491.736 203.772 491.057 203.391 490.405 203.574L471.785 208.826C471.131 209.011 470.751 209.691 470.936 210.344C471.089 210.886 471.581 211.24 472.119 211.24" fill="#141414" fill-rule="nonzero" opacity="1" stroke="none"/>
<path d="M456.18 188.365C456.598 188.365 457.006 188.151 457.236 187.768L466.798 171.785C467.146 171.201 466.957 170.447 466.374 170.098C465.79 169.752 465.036 169.942 464.687 170.521L455.126 186.504C454.777 187.088 454.967 187.842 455.55 188.191C455.747 188.309 455.965 188.365 456.18 188.365" fill="#141414" fill-rule="nonzero" opacity="1" stroke="none"/>
<path d="M431.746 179.856C431.769 179.856 431.791 179.856 431.814 179.854C432.492 179.818 433.012 179.237 432.975 178.559L432.069 162.03C432.031 161.35 431.452 160.806 430.773 160.87C430.095 160.906 429.575 161.486 429.613 162.164L430.518 178.694C430.555 179.349 431.097 179.856 431.746 179.856" fill="#141414" fill-rule="nonzero" opacity="1" stroke="none"/>
</g>
<g opacity="1">
<path d="M583.496 84.3983C583.604 84.9025 583.61 85.4202 583.508 85.922C583.304 86.9266 582.681 87.812 581.755 88.4109L567.826 97.4001C564.563 99.5067 562.367 102.622 561.647 106.167L559.012 119.148L560.611 119.471L563.246 106.491C563.898 103.279 565.884 100.462 568.84 98.5548L582.768 89.5656C584.004 88.7687 584.834 87.5894 585.107 86.2466C585.379 84.9013 585.075 83.4945 584.247 82.2783L574.928 68.5669C572.951 65.6611 572.221 62.2892 572.872 59.0797L575.228 47.4736L612.815 55.1052L610.459 66.7113C609.807 69.9221 607.82 72.7406 604.867 74.6454L590.936 83.6371C589.701 84.4328 588.871 85.6108 588.598 86.9549C588.325 88.2978 588.63 89.707 589.456 90.9244L598.779 104.633C600.754 107.543 601.483 110.911 600.831 114.123L598.196 127.104L599.793 127.427L602.43 114.448C603.149 110.904 602.341 107.176 600.162 103.967L590.84 90.2567C590.53 89.8017 590.32 89.3061 590.209 88.802C590.101 88.3002 590.094 87.7837 590.197 87.2808C590.401 86.2724 591.024 85.387 591.95 84.7882L605.882 75.8014C609.14 73.6961 611.338 70.5775 612.056 67.0359L614.693 54.0526L573.91 45.7716L571.275 58.755C570.555 62.2978 571.362 66.0263 573.545 69.2347L582.865 82.9436C583.174 83.3998 583.388 83.8929 583.496 84.3983" fill="#00b6f2" fill-rule="nonzero" opacity="1" stroke="none"/>
<path d="M559.52 116.644L558.732 120.528C558.424 122.041 567.304 125.118 578.568 127.404C589.828 129.69 599.207 130.321 599.513 128.809L600.302 124.925C600.237 125.247 599.761 125.473 598.945 125.602C598.803 125.627 598.65 125.648 598.489 125.662C595.197 126.019 587.806 125.237 579.357 123.523C572.736 122.177 566.94 120.559 563.349 119.146C562.356 118.756 561.531 118.38 560.903 118.032C560.594 117.861 560.33 117.694 560.121 117.535C559.929 117.388 559.779 117.251 559.679 117.122C559.545 116.949 559.49 116.789 559.52 116.644" fill="#00b6f2" fill-rule="nonzero" opacity="1" stroke="none"/>
<path d="M573.884 45.9036L573.329 48.6397C573.021 50.1523 581.902 53.229 593.164 55.5163C604.424 57.8036 613.804 58.4319 614.111 56.9206L614.667 54.1833L573.884 45.9036Z" fill="#00b6f2" fill-rule="nonzero" opacity="1" stroke="none"/>
<path d="M614.666 54.1838C614.359 55.6951 604.981 55.0667 593.719 52.7794C582.458 50.4934 573.576 47.4142 573.884 45.9041C574.191 44.3903 583.568 45.0199 594.831 47.3059C606.091 49.5932 614.974 52.6724 614.666 54.1838" fill="#00b6f2" fill-rule="nonzero" opacity="1" stroke="none"/>
<path d="M584.248 82.2775C585.074 83.4913 585.379 84.9018 585.106 86.2458C584.835 87.5862 584.005 88.7655 582.769 89.5636L568.837 98.5529C565.885 100.461 563.899 103.277 563.246 106.488L560.903 118.029C563.793 119.641 570.903 121.804 579.358 123.52C587.807 125.237 595.196 126.017 598.489 125.661L600.832 114.122C601.485 110.909 600.753 107.541 598.78 104.633L589.457 90.9225C588.631 89.705 588.326 88.297 588.599 86.9554C588.872 85.6101 589.702 84.4308 590.937 83.6352L604.868 74.6447C607.821 72.7386 609.808 69.9189 610.458 66.7105L612.297 57.6574C609.005 58.014 601.614 57.2319 593.165 55.5152C584.71 53.7997 577.601 51.6366 574.712 50.0245L572.873 59.0777C572.221 62.2872 572.951 65.6579 574.927 68.565L584.248 82.2775Z" fill="#ffffff" fill-rule="nonzero" opacity="1" stroke="none"/>
<path d="M576.596 113.894C576.674 113.867 576.757 113.841 576.834 113.816C578.715 113.187 580.057 111.798 580.413 110.094L584.923 88.504C585.278 87.9852 585.529 87.4115 585.656 86.7994C585.67 86.7277 585.683 86.6584 585.695 86.5867C585.894 85.3447 585.579 84.0584 584.797 82.942L580.206 76.3746L580.204 76.3746L578.213 73.5272L577.268 72.1753L575.476 69.6136C575.054 69.0075 574.688 68.3835 574.38 67.744C576.211 67.7249 578.375 67.9676 580.332 68.8856C581.978 69.6602 584.804 70.7061 587.739 71.7282C590.083 71.4329 592.449 71.0289 595.051 70.5543C600.051 69.6411 604.997 71.6816 608.045 73.3778C607.288 74.1799 606.407 74.9019 605.419 75.5223L591.486 84.2629C590.319 84.9932 589.513 86.0595 589.199 87.2776C589.18 87.3481 589.163 87.4186 589.148 87.488C589.021 88.0976 589.021 88.7216 589.14 89.3324L584.641 110.871C584.301 112.502 584.904 114.22 586.272 115.498C588.466 117.55 592.562 120.603 599.438 123.202L599.039 125.115C595.747 125.461 588.356 124.701 579.907 123.034C573.286 121.727 567.5 120.155 563.909 118.783C563.907 118.782 563.903 118.78 563.9 118.78C563.842 118.758 563.789 118.736 563.732 118.715C563.598 118.661 563.465 118.609 563.338 118.558C563.206 118.504 563.079 118.452 562.955 118.4C562.846 118.355 562.736 118.308 562.634 118.264C562.498 118.203 562.372 118.146 562.246 118.087C562.164 118.05 562.078 118.012 562.002 117.975C561.807 117.88 561.621 117.788 561.454 117.696L561.736 116.341L562.006 115.05C565.701 115.677 572.868 114.566 576.596 113.894" fill="#ff4242" fill-rule="nonzero" opacity="1" stroke="none"/>
<path d="M597.468 28.9764L608.876 28.9764C609.555 28.9764 610.106 28.4267 610.106 27.7467C610.106 27.0666 609.555 26.517 608.876 26.517L597.468 26.517C596.789 26.517 596.239 27.0666 596.239 27.7467C596.239 28.4267 596.789 28.9764 597.468 28.9764" fill="#141414" fill-rule="nonzero" opacity="1" stroke="none"/>
</g>
</g>
<g opacity="1">
<path d="M338.133 548.57C338.133 473.262 277.083 412.213 201.775 412.213C126.467 412.213 65.4193 473.262 65.4193 548.57C65.4193 623.877 126.467 684.926 201.775 684.926C277.083 684.926 338.133 623.877 338.133 548.57" fill="#00b6f2" fill-rule="nonzero" opacity="1" stroke="none"/>
<path d="M322.658 548.57C322.658 481.808 268.538 427.687 201.776 427.687C135.015 427.687 80.8943 481.808 80.8943 548.57C80.8943 615.331 135.015 669.452 201.776 669.452C268.538 669.452 322.658 615.331 322.658 548.57" fill="#ffffff" fill-rule="nonzero" opacity="1" stroke="none"/>
<path d="M311.026 496.798C274.224 513.949 236.312 528.634 199.554 545.896C199.491 545.925 199.432 545.923 199.372 545.941C201.158 556.875 254.923 647.896 258.604 655.268C296.714 634.927 322.658 594.787 322.658 548.57C322.658 530.041 318.476 512.494 311.026 496.798" fill="#ec2961" fill-rule="nonzero" opacity="1" stroke="none"/>
<path d="M204.265 457.377L199.287 457.377L199.287 436.623L204.265 436.623L204.265 457.377Z" fill="#00b6f2" fill-rule="nonzero" opacity="1" stroke="none"/>
<path d="M155.113 462.769L150.803 465.257L143.649 452.866L147.959 450.377L155.113 462.769Z" fill="#00b6f2" fill-rule="nonzero" opacity="1" stroke="none"/>
<path d="M118.464 497.595L115.976 501.907L103.583 494.751L106.072 490.441L118.464 497.595Z" fill="#00b6f2" fill-rule="nonzero" opacity="1" stroke="none"/>
<path d="M110.584 551.06L89.8296 551.06L89.8296 546.08L110.584 546.08L110.584 551.06Z" fill="#00b6f2" fill-rule="nonzero" opacity="1" stroke="none"/>
<path d="M115.976 595.233L118.464 599.545L106.073 606.697L103.584 602.386L115.976 595.233Z" fill="#00b6f2" fill-rule="nonzero" opacity="1" stroke="none"/>
<path d="M150.803 631.882L155.113 634.37L147.958 646.763L143.648 644.273L150.803 631.882Z" fill="#00b6f2" fill-rule="nonzero" opacity="1" stroke="none"/>
<path d="M199.288 639.321L204.266 639.321L204.266 660.516L199.288 660.516L199.288 639.321Z" fill="#00b6f2" fill-rule="nonzero" opacity="1" stroke="none"/>
<path d="M248.44 634.37L252.75 631.883L259.904 644.273L255.594 646.762L248.44 634.37Z" fill="#00b6f2" fill-rule="nonzero" opacity="1" stroke="none"/>
<path d="M285.088 599.544L287.577 595.233L299.969 602.387L297.481 606.696L285.088 599.544Z" fill="#00b6f2" fill-rule="nonzero" opacity="1" stroke="none"/>
<path d="M292.528 546.08L313.722 546.08L313.722 551.06L292.528 551.06L292.528 546.08Z" fill="#00b6f2" fill-rule="nonzero" opacity="1" stroke="none"/>
<path d="M287.577 501.907L285.088 497.595L297.481 490.441L299.969 494.752L287.577 501.907Z" fill="#00b6f2" fill-rule="nonzero" opacity="1" stroke="none"/>
<path d="M252.75 465.258L248.44 462.77L255.595 450.377L259.905 452.867L252.75 465.258Z" fill="#00b6f2" fill-rule="nonzero" opacity="1" stroke="none"/>
<path d="M196.403 546.007L188.763 550.614L240.668 636.705L248.308 632.099L196.403 546.007Z" fill="#141414" fill-rule="nonzero" opacity="1" stroke="none"/>
<path d="M201.141 540.888L203.352 546.145L266.177 519.725L263.966 514.47L201.141 540.888Z" fill="#141414" fill-rule="nonzero" opacity="1" stroke="none"/>
<path d="M218.215 550.228C218.215 541.149 210.856 533.788 201.775 533.788C192.698 533.788 185.336 541.149 185.336 550.228C185.336 559.307 192.698 566.667 201.775 566.667C210.856 566.667 218.215 559.307 218.215 550.228" fill="#00b6f2" fill-rule="nonzero" opacity="1" stroke="none"/>
<path d="M210.491 550.228C210.491 545.415 206.591 541.512 201.776 541.512C196.963 541.512 193.061 545.415 193.061 550.228C193.061 555.041 196.963 558.943 201.776 558.943C206.591 558.943 210.491 555.041 210.491 550.228" fill="#ffffff" fill-rule="nonzero" opacity="1" stroke="none"/>
</g>
</g>
</g>
</svg>
