<svg  viewBox="0 0 51 50" fill="none" xmlns="http://www.w3.org/2000/svg">
<path fill-rule="evenodd" clip-rule="evenodd" d="M40.2133 13.44C40.3915 13.2621 40.5329 13.0508 40.6294 12.8182C40.7259 12.5856 40.7756 12.3363 40.7758 12.0845C40.7759 11.8327 40.7265 11.5834 40.6303 11.3507C40.5341 11.118 40.393 10.9065 40.215 10.7283C40.0371 10.5502 39.8258 10.4088 39.5932 10.3123C39.3606 10.2158 39.1113 10.1661 38.8595 10.1659C38.6077 10.1658 38.3584 10.2152 38.1257 10.3114C37.893 10.4076 37.6815 10.5487 37.5034 10.7267L25.94 22.29L14.38 10.7267C14.0202 10.3669 13.5322 10.1647 13.0234 10.1647C12.5145 10.1647 12.0265 10.3669 11.6667 10.7267C11.3069 11.0865 11.1047 11.5745 11.1047 12.0834C11.1047 12.5922 11.3069 13.0802 11.6667 13.44L23.23 25L11.6667 36.56C11.4885 36.7382 11.3472 36.9497 11.2508 37.1825C11.1544 37.4152 11.1047 37.6647 11.1047 37.9167C11.1047 38.1686 11.1544 38.4181 11.2508 38.6509C11.3472 38.8837 11.4885 39.0952 11.6667 39.2733C12.0265 39.6332 12.5145 39.8353 13.0234 39.8353C13.2753 39.8353 13.5248 39.7857 13.7576 39.6893C13.9904 39.5928 14.2019 39.4515 14.38 39.2733L25.94 27.71L37.5034 39.2733C37.8632 39.6327 38.351 39.8344 38.8595 39.8341C39.3681 39.8338 39.8557 39.6315 40.215 39.2717C40.5744 38.9119 40.7761 38.424 40.7758 37.9155C40.7755 37.407 40.5732 36.9194 40.2133 36.56L28.65 25L40.2133 13.44Z" fill="black"/>
</svg>
