<svg width="50" height="50" viewBox="0 0 50 50" fill="none" xmlns="http://www.w3.org/2000/svg">
<g clip-path="url(#clip0_115_30)">
<path d="M25 0.78125C11.6457 0.78125 0.78125 11.6457 0.78125 25C0.78125 38.3543 11.6457 49.2188 25 49.2188C38.3543 49.2188 49.2188 38.3543 49.2188 25C49.2188 11.6457 38.3543 0.78125 25 0.78125ZM41.0127 11.9498C43.8938 15.4699 45.6386 19.9534 45.6841 24.836C45.002 24.6918 38.1628 23.3046 31.2796 24.1702C30.7179 22.799 30.1877 21.5928 29.4615 20.1063C37.1101 16.9836 40.5766 12.5397 41.0127 11.9498ZM38.713 9.55762C38.3409 10.0876 35.227 14.273 27.8711 17.0302C24.4812 10.8021 20.7241 5.68564 20.1523 4.92002C26.7125 3.33867 33.6256 5.04404 38.713 9.55762ZM16.2052 6.31055C16.7506 7.0585 20.4472 12.1812 23.8748 18.2743C14.1983 20.8439 5.67559 20.8069 4.75039 20.7947C6.0918 14.3755 10.4178 9.04033 16.2052 6.31055ZM4.31348 25.0315C4.31348 24.82 4.31768 24.6095 4.32402 24.3994C5.2291 24.418 15.2537 24.5472 25.5844 21.4555C26.1766 22.6145 26.7423 23.7909 27.2615 24.9661C19.7812 27.073 12.9848 33.123 9.63154 38.8632C6.32754 35.1958 4.31348 30.3447 4.31348 25.0315ZM12.3024 41.3512C14.4633 36.9339 20.3276 31.2318 28.6676 28.3867C31.5719 35.9339 32.7729 42.2591 33.0806 44.074C26.429 46.9073 18.4307 46.13 12.3024 41.3512ZM36.5583 42.1802C36.3463 40.9218 35.2452 34.866 32.5395 27.4309C39.022 26.3932 44.7173 28.0918 45.425 28.3151C44.5029 34.0711 41.1991 39.0421 36.5583 42.1802Z" fill="black"/>
</g>
<defs>
<clipPath id="clip0_115_30">
<rect width="50" height="50" fill="white"/>
</clipPath>
</defs>
</svg>
