<svg width="45" height="50" viewBox="0 0 45 50" fill="none" xmlns="http://www.w3.org/2000/svg">
<g clip-path="url(#clip0_115_27)">
<path d="M22.6348 13.7695C16.4238 13.7695 11.4141 18.7793 11.4141 24.9902C11.4141 31.2012 16.4238 36.2109 22.6348 36.2109C28.8457 36.2109 33.8555 31.2012 33.8555 24.9902C33.8555 18.7793 28.8457 13.7695 22.6348 13.7695ZM22.6348 32.2852C18.6211 32.2852 15.3398 29.0137 15.3398 24.9902C15.3398 20.9668 18.6113 17.6953 22.6348 17.6953C26.6582 17.6953 29.9297 20.9668 29.9297 24.9902C29.9297 29.0137 26.6484 32.2852 22.6348 32.2852ZM36.9316 13.3105C36.9316 14.7656 35.7598 15.9277 34.3145 15.9277C32.8594 15.9277 31.6973 14.7559 31.6973 13.3105C31.6973 11.8652 32.8691 10.6934 34.3145 10.6934C35.7598 10.6934 36.9316 11.8652 36.9316 13.3105ZM44.3633 15.9668C44.1973 12.4609 43.3965 9.35547 40.8281 6.79687C38.2695 4.23828 35.1641 3.4375 31.6582 3.26172C28.0449 3.05664 17.2148 3.05664 13.6016 3.26172C10.1055 3.42773 7 4.22852 4.43164 6.78711C1.86328 9.3457 1.07227 12.4512 0.896484 15.957C0.691406 19.5703 0.691406 30.4004 0.896484 34.0137C1.0625 37.5195 1.86328 40.625 4.43164 43.1836C7 45.7422 10.0957 46.543 13.6016 46.7188C17.2148 46.9238 28.0449 46.9238 31.6582 46.7188C35.1641 46.5527 38.2695 45.752 40.8281 43.1836C43.3867 40.625 44.1875 37.5195 44.3633 34.0137C44.5684 30.4004 44.5684 19.5801 44.3633 15.9668ZM39.6953 37.8906C38.9336 39.8047 37.459 41.2793 35.5352 42.0508C32.6543 43.1934 25.8184 42.9297 22.6348 42.9297C19.4512 42.9297 12.6055 43.1836 9.73438 42.0508C7.82031 41.2891 6.3457 39.8145 5.57422 37.8906C4.43164 35.0098 4.69531 28.1738 4.69531 24.9902C4.69531 21.8066 4.44141 14.9609 5.57422 12.0898C6.33594 10.1758 7.81055 8.70117 9.73438 7.92969C12.6152 6.78711 19.4512 7.05078 22.6348 7.05078C25.8184 7.05078 32.6641 6.79687 35.5352 7.92969C37.4492 8.69141 38.9238 10.166 39.6953 12.0898C40.8379 14.9707 40.5742 21.8066 40.5742 24.9902C40.5742 28.1738 40.8379 35.0195 39.6953 37.8906Z" fill="black"/>
</g>
<defs>
<clipPath id="clip0_115_27">
<rect width="43.75" height="50" fill="white" transform="translate(0.75)"/>
</clipPath>
</defs>
</svg>
