<svg  viewBox="0 0 51 50" fill="none" xmlns="http://www.w3.org/2000/svg">
<g clip-path="url(#clip0_131_62)">
<path d="M45.7316 2.91669H6.14827C3.2723 2.91791 0.941162 5.24904 0.939941 8.12502V41.875C0.941162 44.751 3.2723 47.0821 6.14827 47.0834H45.7316C48.6076 47.0821 50.9387 44.751 50.9399 41.875V8.12502C50.9387 5.24904 48.6076 2.91791 45.7316 2.91669ZM6.14827 5.00002H45.7316C47.4552 5.0049 48.8517 6.40139 48.8566 8.12502V12.4687H3.02327V8.12502C3.02816 6.40139 4.42464 5.0049 6.14827 5.00002ZM45.7316 45H6.14827C4.42464 44.9951 3.02816 43.5987 3.02327 41.875V14.552H48.8566V41.875C48.8517 43.5987 47.4552 44.9951 45.7316 45Z" fill="black"/>
<path d="M43.1689 32.1981H29.9919C29.4169 32.1981 28.9502 32.6644 28.9502 33.2398C28.9502 33.8147 29.4169 34.2815 29.9919 34.2815H43.1689C43.7443 34.2815 44.2106 33.8147 44.2106 33.2398C44.2106 32.6644 43.7443 32.1981 43.1689 32.1981Z" fill="black"/>
<path d="M43.1689 38.2605H29.9919C29.4169 38.2605 28.9502 38.7268 28.9502 39.3022C28.9502 39.8775 29.4169 40.3438 29.9919 40.3438H43.1689C43.7443 40.3438 44.2106 39.8775 44.2106 39.3022C44.2106 38.7268 43.7443 38.2605 43.1689 38.2605Z" fill="black"/>
<path d="M43.1689 20.0729H29.9919C29.4169 20.0729 28.9502 20.5392 28.9502 21.1145C28.9502 21.6899 29.4169 22.1562 29.9919 22.1562H43.1689C43.7443 22.1562 44.2106 21.6899 44.2106 21.1145C44.2106 20.5392 43.7443 20.0729 43.1689 20.0729Z" fill="black"/>
<path d="M43.1689 26.1353H29.9919C29.4169 26.1353 28.9502 26.602 28.9502 27.1769C28.9502 27.7523 29.4169 28.2186 29.9919 28.2186H43.1689C43.7443 28.2186 44.2106 27.7523 44.2106 27.1769C44.2106 26.602 43.7443 26.1353 43.1689 26.1353Z" fill="black"/>
<path d="M15.8773 29.7917C18.8489 29.7945 21.2602 27.3881 21.2631 24.4165C21.2659 21.4453 18.8595 19.034 15.8879 19.0312C12.9163 19.0283 10.5054 21.4348 10.5026 24.4064C10.5062 27.3747 12.909 29.7819 15.8773 29.7917ZM15.8773 21.1145C17.212 21.1125 18.416 21.9149 18.9274 23.1474C19.4393 24.3799 19.1573 25.7992 18.2137 26.7428C17.2705 27.6864 15.8509 27.968 14.6188 27.4565C13.3863 26.9446 12.5839 25.7406 12.5859 24.4064C12.5908 22.5904 14.0617 21.1198 15.8773 21.1145Z" fill="black"/>
<path d="M15.8772 31.7814C13.6743 31.7672 11.5604 32.651 10.0232 34.2293C8.46065 35.8228 7.60657 37.9895 7.60657 40.3438C7.60819 40.9184 8.07369 41.3839 8.64823 41.3855H23.1168C23.6918 41.3839 24.1569 40.9184 24.1585 40.3438C24.1585 37.9895 23.3044 35.8228 21.7419 34.2293C20.2006 32.6506 18.0835 31.7668 15.8772 31.7814ZM9.76274 39.3022C9.94137 37.9403 10.555 36.6724 11.5128 35.6877C12.6656 34.5211 14.2374 33.8648 15.8772 33.8648C17.5175 33.8648 19.0893 34.5211 20.2421 35.6877C21.1979 36.6736 21.8115 37.9407 21.9921 39.3022H9.76274Z" fill="black"/>
</g>
<defs>
<clipPath id="clip0_131_62">
<rect width="50" height="50"  transform="translate(0.939941)"/>
</clipPath>
</defs>
</svg>
