<svg  viewBox="0 0 51 50" fill="none" xmlns="http://www.w3.org/2000/svg">
<rect x="0.939941" width="50" height="50" rx="25" fill="#676CDB"/>
<path d="M20.3792 35.059C20.1032 34.7831 19.9652 34.4563 19.9652 34.0788C19.9652 33.702 20.1032 33.3756 20.3792 33.0997L28.465 25.0138L20.3516 16.9004C20.094 16.6428 19.9652 16.3208 19.9652 15.9345C19.9652 15.5481 20.1032 15.217 20.3792 14.941C20.6551 14.665 20.9819 14.527 21.3594 14.527C21.7362 14.527 22.0626 14.665 22.3385 14.941L31.611 24.2411C31.7214 24.3515 31.7998 24.4711 31.8462 24.5999C31.8918 24.7286 31.9146 24.8666 31.9146 25.0138C31.9146 25.161 31.8918 25.299 31.8462 25.4278C31.7998 25.5565 31.7214 25.6761 31.611 25.7865L22.3109 35.0866C22.0534 35.3442 21.7362 35.473 21.3594 35.473C20.9819 35.473 20.6551 35.335 20.3792 35.059Z" fill="white"/>
</svg>
