<svg width="49" height="50" viewBox="0 0 49 50" fill="none" xmlns="http://www.w3.org/2000/svg">
<g clip-path="url(#clip0_115_29)">
<path d="M48.9387 25C48.9387 38.3789 38.0989 49.2188 24.72 49.2188C22.22 49.2188 19.8176 48.8379 17.552 48.1348C18.5383 46.5234 20.0129 43.8867 20.5598 41.7871C20.8528 40.6543 22.0637 36.0254 22.0637 36.0254C22.8547 37.5293 25.1594 38.8086 27.6106 38.8086C34.9153 38.8086 40.179 32.0898 40.179 23.7402C40.179 15.7422 33.6458 9.75586 25.2473 9.75586C14.7981 9.75586 9.24146 16.7676 9.24146 24.4141C9.24146 27.9688 11.136 32.3926 14.1536 33.7988C14.6125 34.0137 14.8567 33.916 14.9641 33.4766C15.0422 33.1445 15.4524 31.4941 15.6379 30.7324C15.6965 30.4883 15.6672 30.2734 15.4719 30.0391C14.4856 28.8184 13.6848 26.5918 13.6848 24.5117C13.6848 19.1699 17.7278 14.0039 24.6223 14.0039C30.5696 14.0039 34.7395 18.0566 34.7395 23.8574C34.7395 30.4102 31.429 34.9512 27.1223 34.9512C24.7493 34.9512 22.9622 32.9883 23.5383 30.5762C24.2219 27.6953 25.5403 24.5898 25.5403 22.5098C25.5403 20.6543 24.5442 19.1016 22.4739 19.1016C20.0422 19.1016 18.0891 21.6113 18.0891 24.9805C18.0891 27.1289 18.8118 28.5742 18.8118 28.5742C18.8118 28.5742 16.4192 38.7109 15.9797 40.6055C15.4915 42.6953 15.6868 45.6445 15.8918 47.5586C6.88794 44.0332 0.501221 35.2637 0.501221 25C0.501221 11.6211 11.3411 0.78125 24.72 0.78125C38.0989 0.78125 48.9387 11.6211 48.9387 25Z" fill="black"/>
</g>
<defs>
<clipPath id="clip0_115_29">
<rect width="48.44" height="50" fill="white" transform="translate(0.5)"/>
</clipPath>
</defs>
</svg>
