<svg  viewBox="0 0 51 50" fill="none" xmlns="http://www.w3.org/2000/svg">
<g clip-path="url(#clip0_127_192)">
<path d="M28.2212 9.84766C28.1608 9.70718 28.0605 9.58751 27.9328 9.50349C27.805 9.41948 27.6554 9.3748 27.5025 9.375H24.3775C24.2246 9.3748 24.075 9.41948 23.9472 9.50349C23.8194 9.58751 23.7191 9.70718 23.6587 9.84766L16.6275 26.2539C16.5845 26.3525 16.5623 26.4589 16.5623 26.5664C16.5623 26.674 16.5845 26.7803 16.6275 26.8789L19.6353 33.6328L18.1665 38.0352C18.1276 38.1526 18.117 38.2777 18.1358 38.4C18.1547 38.5223 18.2023 38.6384 18.2747 38.7388C18.3472 38.8391 18.4425 38.9207 18.5527 38.977C18.6629 39.0333 18.785 39.0626 18.9087 39.0625H32.9712C33.095 39.0626 33.217 39.0333 33.3272 38.977C33.4375 38.9207 33.5327 38.8391 33.6052 38.7388C33.6777 38.6384 33.7253 38.5223 33.7441 38.4C33.7629 38.2777 33.7524 38.1526 33.7134 38.0352L32.2447 33.6328L35.2486 26.8789C35.2916 26.7803 35.3138 26.674 35.3138 26.5664C35.3138 26.4589 35.2916 26.3525 35.2486 26.2539L28.2212 9.84766ZM25.94 23.8281C26.4035 23.8281 26.8567 23.9656 27.2421 24.2231C27.6275 24.4807 27.9279 24.8467 28.1053 25.275C28.2827 25.7032 28.3291 26.1745 28.2387 26.6291C28.1483 27.0838 27.925 27.5014 27.5973 27.8292C27.2695 28.1569 26.8519 28.3802 26.3972 28.4706C25.9426 28.561 25.4713 28.5146 25.0431 28.3372C24.6148 28.1598 24.2488 27.8594 23.9912 27.474C23.7337 27.0886 23.5962 26.6354 23.5962 26.1719C23.5962 25.5503 23.8432 24.9541 24.2827 24.5146C24.7222 24.0751 25.3184 23.8281 25.94 23.8281ZM19.9908 37.5L21.0337 34.375H30.8462L31.8892 37.5H19.9908ZM30.9009 32.8125H20.979L18.1978 26.5625L24.8931 10.9375H25.1587V22.3438C24.2103 22.5374 23.3675 23.0762 22.7937 23.8559C22.22 24.6356 21.9562 25.6006 22.0535 26.5637C22.1508 27.5268 22.6023 28.4195 23.3203 29.0687C24.0384 29.7179 24.9719 30.0773 25.94 30.0773C26.908 30.0773 27.8416 29.7179 28.5596 29.0687C29.2777 28.4195 29.7292 27.5268 29.8264 26.5637C29.9237 25.6006 29.66 24.6356 29.0862 23.8559C28.5125 23.0762 27.6697 22.5374 26.7212 22.3438V10.9375H26.9869L33.6822 26.5625L30.9009 32.8125Z" fill="#0D1F35"/>
<path d="M49.7681 22.2656H47.9829C47.4296 18.376 45.8581 14.7016 43.4277 11.6147C40.9973 8.52785 37.7943 6.1381 34.1431 4.68751H40.147C40.3313 5.20877 40.6939 5.6481 41.1708 5.92785C41.6477 6.20759 42.2081 6.30975 42.753 6.21626C43.2979 6.12276 43.7923 5.83964 44.1486 5.41693C44.505 4.99422 44.7004 4.45914 44.7004 3.90626C44.7004 3.35338 44.505 2.8183 44.1486 2.39559C43.7923 1.97288 43.2979 1.68976 42.753 1.59626C42.2081 1.50277 41.6477 1.60492 41.1708 1.88467C40.6939 2.16442 40.3313 2.60375 40.147 3.12501H29.7681C29.5888 2.24197 29.1097 1.44808 28.412 0.87784C27.7144 0.307603 26.841 -0.00390625 25.9399 -0.00390625C25.0389 -0.00390625 24.1655 0.307603 23.4679 0.87784C22.7702 1.44808 22.2911 2.24197 22.1118 3.12501H11.7407C11.5564 2.60375 11.1938 2.16442 10.7169 1.88467C10.24 1.60492 9.6796 1.50277 9.13468 1.59626C8.58976 1.68976 8.09544 1.97288 7.73908 2.39559C7.38272 2.8183 7.18726 3.35338 7.18726 3.90626C7.18726 4.45914 7.38272 4.99422 7.73908 5.41693C8.09544 5.83964 8.58976 6.12276 9.13468 6.21626C9.6796 6.30975 10.24 6.20759 10.7169 5.92785C11.1938 5.6481 11.5564 5.20877 11.7407 4.68751H17.7368C14.0856 6.1381 10.8826 8.52785 8.45215 11.6147C6.02175 14.7016 4.4503 18.376 3.89697 22.2656H2.11182C1.90462 22.2656 1.7059 22.3479 1.55939 22.4945C1.41288 22.641 1.33057 22.8397 1.33057 23.0469V27.7344C1.33057 27.9416 1.41288 28.1403 1.55939 28.2868C1.7059 28.4333 1.90462 28.5156 2.11182 28.5156H3.89697C4.55686 33.3001 6.76233 37.7379 10.1775 41.1531C13.5927 44.5682 18.0304 46.7737 22.8149 47.4336V49.2188C22.8149 49.426 22.8973 49.6247 23.0438 49.7712C23.1903 49.9177 23.389 50 23.5962 50H28.2837C28.4909 50 28.6896 49.9177 28.8361 49.7712C28.9826 49.6247 29.0649 49.426 29.0649 49.2188V47.4336C33.8494 46.7737 38.2872 44.5682 41.7024 41.1531C45.1176 37.7379 47.323 33.3001 47.9829 28.5156H49.7681C49.9753 28.5156 50.174 28.4333 50.3205 28.2868C50.467 28.1403 50.5493 27.9416 50.5493 27.7344V23.0469C50.5493 22.8397 50.467 22.641 50.3205 22.4945C50.174 22.3479 49.9753 22.2656 49.7681 22.2656ZM42.3462 3.12501C42.5007 3.12501 42.6518 3.17083 42.7802 3.25667C42.9087 3.34252 43.0088 3.46453 43.068 3.60729C43.1271 3.75004 43.1426 3.90713 43.1124 4.05867C43.0823 4.21022 43.0079 4.34943 42.8986 4.45869C42.7894 4.56795 42.6502 4.64235 42.4986 4.6725C42.3471 4.70264 42.19 4.68717 42.0472 4.62804C41.9045 4.56891 41.7825 4.46877 41.6966 4.3403C41.6108 4.21182 41.5649 4.06078 41.5649 3.90626C41.5649 3.69906 41.6473 3.50035 41.7938 3.35383C41.9403 3.20732 42.139 3.12501 42.3462 3.12501ZM25.9399 1.56251C26.4035 1.56251 26.8566 1.69997 27.2421 1.9575C27.6275 2.21504 27.9279 2.58108 28.1053 3.00935C28.2827 3.43761 28.3291 3.90886 28.2387 4.3635C28.1482 4.81815 27.925 5.23576 27.5972 5.56354C27.2694 5.89132 26.8518 6.11454 26.3972 6.20497C25.9425 6.29541 25.4713 6.24899 25.043 6.0716C24.6148 5.89421 24.2487 5.5938 23.9912 5.20838C23.7337 4.82295 23.5962 4.36981 23.5962 3.90626C23.5962 3.28466 23.8431 2.68852 24.2827 2.24898C24.7222 1.80944 25.3183 1.56251 25.9399 1.56251ZM9.53369 4.68751C9.37918 4.68751 9.22813 4.64169 9.09965 4.55584C8.97118 4.47 8.87104 4.34799 8.81191 4.20523C8.75278 4.06248 8.73731 3.90539 8.76745 3.75385C8.7976 3.6023 8.872 3.46309 8.98126 3.35383C9.09052 3.24457 9.22973 3.17017 9.38128 3.14002C9.53282 3.10988 9.68991 3.12535 9.83266 3.18448C9.97542 3.24361 10.0974 3.34374 10.1833 3.47222C10.2691 3.6007 10.3149 3.75174 10.3149 3.90626C10.3149 4.11346 10.2326 4.31217 10.0861 4.45869C9.93961 4.6052 9.74089 4.68751 9.53369 4.68751ZM2.89307 23.8281H6.01807V26.9531H2.89307V23.8281ZM27.5024 48.4375H24.3774V45.3125H27.5024V48.4375ZM29.0649 45.8555V44.5313C29.0649 44.3241 28.9826 44.1253 28.8361 43.9788C28.6896 43.8323 28.4909 43.75 28.2837 43.75H23.5962C23.389 43.75 23.1903 43.8323 23.0438 43.9788C22.8973 44.1253 22.8149 44.3241 22.8149 44.5313V45.8555C18.4477 45.2059 14.4049 43.1699 11.2828 40.0478C8.16069 36.9257 6.12469 32.8829 5.4751 28.5156H6.79932C7.00652 28.5156 7.20523 28.4333 7.35174 28.2868C7.49826 28.1403 7.58057 27.9416 7.58057 27.7344V23.0469C7.58057 22.8397 7.49826 22.641 7.35174 22.4945C7.20523 22.3479 7.00652 22.2656 6.79932 22.2656H5.4751C6.12729 18.0115 8.08784 14.066 11.0845 10.9769C14.0812 7.88782 17.9654 5.80839 22.1978 5.02735C22.4388 5.83253 22.9331 6.5385 23.6072 7.04042C24.2814 7.54233 25.0995 7.81341 25.9399 7.81341C26.7804 7.81341 27.5985 7.54233 28.2726 7.04042C28.9468 6.5385 29.4411 5.83253 29.6821 5.02735C33.9145 5.80839 37.7986 7.88782 40.7953 10.9769C43.792 14.066 45.7526 18.0115 46.4048 22.2656H45.0806C44.8734 22.2656 44.6747 22.3479 44.5281 22.4945C44.3816 22.641 44.2993 22.8397 44.2993 23.0469V27.7344C44.2993 27.9416 44.3816 28.1403 44.5281 28.2868C44.6747 28.4333 44.8734 28.5156 45.0806 28.5156H46.4048C45.7558 32.8831 43.72 36.9263 40.5978 40.0485C37.4756 43.1707 33.4324 45.2065 29.0649 45.8555ZM48.9868 26.9531H45.8618V23.8281H48.9868V26.9531Z" fill="#0D1F35"/>
</g>
<defs>
<clipPath id="clip0_127_192">
<rect width="50" height="50" fill="white" transform="translate(0.939941)"/>
</clipPath>
</defs>
</svg>
